<svg width="128" height="128" viewBox="0 0 128 128" fill="none" xmlns="http://www.w3.org/2000/svg">
<g clip-path="url(#clip0_15_40)">
<circle cx="64" cy="64" r="63.5" stroke="#722082"/>
<path d="M55.2321 8.53761C55.1553 8.60161 54.9889 8.80641 54.8609 9.01121C54.6561 9.33121 54.6305 9.53601 54.7073 10.4064C54.7585 10.9696 54.8353 11.4944 54.8865 11.5712C55.0401 11.8144 55.4241 13.7088 55.6161 15.232C55.7185 16.0384 55.8977 16.9088 56.0001 17.152C56.2945 17.8688 56.4737 19.1872 56.4225 20.352C56.3969 21.248 56.4225 21.44 56.5761 21.44C56.7425 21.44 56.7681 21.12 56.7425 19.2256C56.7169 17.4976 56.7425 17.0368 56.8705 17.1136C57.6641 17.6 58.4833 18.2144 58.7521 18.496C59.2641 19.072 60.0449 19.584 60.3777 19.584C60.8001 19.584 60.6977 19.328 60.1601 19.008C59.9297 18.8672 59.2641 18.3168 58.6881 17.792C58.0993 17.2672 57.5361 16.7552 57.4209 16.6656C57.0497 16.3712 57.5361 15.7312 58.8161 14.848C59.5841 14.3104 59.6737 14.208 59.5073 13.9904C59.2001 13.6192 58.0737 14.144 56.9985 15.1424C56.7681 15.36 56.5505 15.5136 56.5249 15.4752C56.3969 15.3472 56.1793 12.8384 56.2689 12.4288C56.3201 12.1728 56.3457 11.8784 56.3329 11.776C56.3201 11.6736 56.3969 11.0976 56.4993 10.5088C56.6145 9.86881 56.6401 9.34401 56.5761 9.22881C56.3073 8.71681 55.5265 8.32001 55.2321 8.53761Z" fill="#722082"/>
<path d="M84.0193 12.7232C82.9825 13.4784 80.8193 15.8208 80.3841 16.6272C80.2945 16.7936 80.0001 17.152 79.7185 17.4208C79.1297 17.984 79.0913 18.4576 79.6161 18.8288C80.4225 19.4048 81.0881 19.1616 81.2417 18.2528C81.3953 17.3184 84.0321 13.4272 84.3777 13.6448C84.5441 13.7472 84.4929 15.0912 84.2881 15.936C83.9809 17.2032 84.0833 18.304 84.5057 18.304C84.5825 18.304 85.1841 17.728 85.8625 17.0112C86.5409 16.3072 87.2577 15.6416 87.4753 15.5264C87.8209 15.3472 87.8721 15.3472 88.0001 15.5392C88.1921 15.7952 87.9873 16.6656 87.6033 17.216C87.2961 17.664 87.1681 17.9456 87.0401 18.56C86.9761 18.8032 86.8481 19.2512 86.7329 19.5456C86.6305 19.84 86.4769 20.4672 86.4001 20.9536C86.3233 21.4272 86.1441 22.3104 86.0033 22.912C85.8625 23.5136 85.6577 24.3456 85.5553 24.7808C85.0817 26.7776 85.5553 26.1888 86.3361 23.808C87.0657 21.568 87.2065 21.184 87.3857 20.9792C87.6545 20.6464 88.6785 18.496 88.7681 18.0608C88.8193 17.8304 89.1137 17.0496 89.4337 16.3328C90.1889 14.6688 90.2401 14.2592 89.7921 13.7216C89.2289 13.056 88.5121 13.2224 87.3985 14.3104C86.9761 14.72 86.7841 15.0016 86.7841 15.232C86.7841 15.4752 86.5153 15.8336 85.7857 16.5504C85.2353 17.1008 84.7489 17.4976 84.6977 17.4592C84.5569 17.3056 84.5953 16.6016 84.7873 15.9232C85.0561 15.0016 85.4017 12.6848 85.3121 12.4032C85.1841 12.0192 84.8257 12.1088 84.0193 12.7232Z" fill="#722082"/>
<path d="M62.0032 14.1952C61.5168 14.4896 61.2352 15.1424 61.12 16.2944C61.0048 17.3056 61.1712 17.728 61.9264 18.368C62.3488 18.7264 62.4512 18.752 63.3728 18.752C64.4736 18.752 64.8832 18.56 65.3184 17.8176C65.8432 16.9216 65.4976 15.872 64.4352 15.232C63.8336 14.8608 63.5776 15.0656 64.0896 15.5008C65.1776 16.4096 65.1648 17.5744 64.0768 17.9712C63.7056 18.0992 62.8864 17.8176 62.6048 17.4464C62.1696 16.896 62.2464 16.2944 62.9504 14.8736C63.3344 14.1312 62.7712 13.7216 62.0032 14.1952Z" fill="#722082"/>
<path d="M68.1985 14.528C67.3409 15.168 67.1361 16.0128 67.4817 17.3824C67.5969 17.8432 67.8017 18.1632 68.3521 18.7136C69.1841 19.5456 69.6833 19.712 70.6049 19.456C71.4369 19.2128 71.4241 19.0592 70.5665 19.0976C70.0161 19.1104 69.7345 19.0592 69.4529 18.88C68.9409 18.5344 68.3521 17.6896 68.3521 17.28V16.9344L69.7985 16.8576C70.5793 16.8064 71.4881 16.6912 71.8081 16.6016C72.3201 16.4608 72.3841 16.3968 72.4225 16.0128C72.4609 15.68 72.3841 15.5264 72.0129 15.168C71.2961 14.4896 70.3361 14.08 69.4913 14.08C68.8641 14.08 68.6977 14.144 68.1985 14.528ZM70.5793 15.2448C70.7585 15.3856 70.8737 15.5648 70.8353 15.6416C70.7329 15.7952 69.1073 15.6928 68.7873 15.5136C68.5953 15.4112 68.6081 15.36 68.9409 15.1936C69.4657 14.8992 70.1697 14.9248 70.5793 15.2448Z" fill="#722082"/>
<path d="M50.9185 15.8208C49.6129 16.576 49.5361 16.704 49.6513 17.92C49.7537 18.8544 50.0865 19.776 50.5857 20.5056C51.0593 21.1968 52.4289 21.1072 53.3249 20.3264C53.8497 19.8656 53.7857 19.6352 53.2097 19.968C52.5825 20.3264 51.6097 20.3648 51.2769 20.032C50.7265 19.4816 50.8033 18.0096 51.4177 17.28C51.6865 16.9472 51.8273 16.896 52.3393 16.896C53.0945 16.896 53.3633 16.704 53.4657 16.1024C53.5297 15.6416 53.5169 15.6032 53.0817 15.424C52.3649 15.1296 51.9809 15.1936 50.9185 15.8208Z" fill="#722082"/>
<path d="M45.1329 17.344C44.5569 17.7408 44.4545 17.7408 44.1729 17.3824C43.9681 17.1392 43.8785 17.1264 43.3793 17.2288C42.5601 17.3952 42.5473 17.8048 43.3153 18.6752C43.7249 19.136 43.9041 19.4432 43.9041 19.6992C43.9041 19.904 43.9809 20.096 44.0705 20.1344C44.1601 20.1728 44.3521 20.5312 44.4801 20.9408C44.6209 21.3632 44.7745 21.7472 44.8257 21.8112C44.8769 21.888 44.9281 22.0672 44.9281 22.2336C44.9281 22.4 45.0945 22.8864 45.3121 23.3344C45.5681 23.872 45.7217 24.4736 45.7985 25.1776C45.9265 26.24 46.2593 27.1488 46.5793 27.2384C46.7841 27.3024 46.7457 27.0336 46.4129 26.1376C46.2977 25.8304 46.1569 25.088 46.0929 24.4736C46.0289 23.8592 45.8113 22.6944 45.6321 21.888C45.4401 21.0816 45.2865 20.3008 45.2993 20.16C45.3121 20.0192 45.3249 19.6608 45.3121 19.3536C45.2993 18.0224 46.1569 17.6128 47.0273 18.5088C47.5521 19.0464 47.8081 19.712 47.6801 20.1984C47.4881 20.9664 46.6433 21.4144 46.3489 20.9024C46.2849 20.7744 46.1825 20.7232 46.1313 20.7744C45.9905 20.9152 46.2465 21.2992 46.5281 21.3504C46.9121 21.4272 47.7313 20.9792 48.0001 20.544C48.4993 19.7376 48.2689 18.7648 47.3345 17.664C46.7457 16.96 45.8881 16.832 45.1329 17.344Z" fill="#722082"/>
<path d="M79.5522 20.096C79.5138 20.16 79.5394 20.224 79.6034 20.224C79.6802 20.224 79.7442 20.16 79.7442 20.096C79.7442 20.0192 79.7186 19.968 79.693 19.968C79.6546 19.968 79.5906 20.0192 79.5522 20.096Z" fill="#722082"/>
<path d="M38.208 21.184C37.5552 21.824 37.9392 23.8848 38.8608 24.6912C39.168 24.96 39.4752 25.088 39.9744 25.152C40.7808 25.2544 41.2928 25.0752 42.0224 24.4352C42.4704 24.0384 42.5216 23.9232 42.5856 23.2064C42.6752 22.2976 42.496 21.9136 41.8176 21.504C41.344 21.2096 40 21.1328 40.0896 21.4016C40.128 21.4912 40.3456 21.5936 40.5888 21.6448C41.4848 21.7856 41.984 22.2848 41.984 23.0144C41.984 23.8336 40.9984 24.3712 40.1536 24.0128C39.552 23.7696 39.2832 23.232 39.2064 22.0928C39.1168 20.8128 38.8224 20.5568 38.208 21.184Z" fill="#722082"/>
<path d="M90.701 22.272C89.485 22.5024 88.5762 24.2816 88.9602 25.6896C89.2034 26.56 89.549 27.2256 89.9074 27.456C90.0738 27.5712 90.5218 27.6864 90.893 27.7248L91.5842 27.7888L90.8802 27.4304C90.061 27.008 89.7666 26.5728 89.6642 25.6C89.6002 25.0752 89.6258 24.832 89.7794 24.64C89.9586 24.3968 89.9842 24.3968 90.3298 24.6016C91.1618 25.1136 93.0434 25.856 93.5042 25.856C93.837 25.856 94.0802 25.536 94.0802 25.088C94.0802 24.9344 93.8626 24.3968 93.6066 23.9104C93.2482 23.2192 92.9922 22.9248 92.493 22.5792C91.8402 22.144 91.597 22.0928 90.701 22.272ZM92.0194 23.3472C92.4546 23.5776 92.8514 24.1408 92.749 24.3968C92.685 24.5632 92.621 24.5504 92.2626 24.3712C91.7762 24.1152 90.8802 23.4112 90.8802 23.2576C90.8802 23.104 91.6482 23.1552 92.0194 23.3472Z" fill="#722082"/>
<path d="M34.9441 22.912C34.9441 22.976 35.0081 23.04 35.0721 23.04C35.1489 23.04 35.2001 22.976 35.2001 22.912C35.2001 22.8352 35.1489 22.784 35.0721 22.784C35.0081 22.784 34.9441 22.8352 34.9441 22.912Z" fill="#722082"/>
<path d="M34.4576 23.936C34.1376 24.0768 33.92 24.5376 33.92 25.088C33.92 25.5616 33.7536 25.664 33.472 25.344C33.0752 24.9088 32.576 25.0112 32.1664 25.6256C31.8464 26.0992 31.744 26.176 31.3984 26.1376C30.9376 26.0864 30.0288 26.5088 29.9008 26.816C29.7472 27.2256 29.8368 27.392 30.3744 27.7376C30.6816 27.9424 31.4624 28.6848 32.1152 29.4016C32.768 30.1184 33.3824 30.7328 33.4848 30.7712C34.2656 31.0656 34.496 30.5408 33.9328 29.7728C32.6272 28.0064 32.256 26.4192 33.0624 25.9328C33.2672 25.8176 33.3952 25.8944 33.9456 26.496C34.2912 26.88 34.8416 27.5584 35.1744 27.9936C35.7248 28.7616 36.096 29.0048 36.096 28.6336C36.096 28.5312 35.8656 28.1344 35.5712 27.7376C34.9952 26.9312 34.56 25.792 34.6752 25.4336C34.7648 25.1776 35.4304 24.704 35.6992 24.704C35.8784 24.704 36.4032 25.1136 37.504 26.0864C37.824 26.3808 38.1056 26.5472 38.1312 26.4832C38.1824 26.3168 35.8784 24.0896 35.4816 23.9232C35.1232 23.7824 34.8416 23.7824 34.4576 23.936Z" fill="#722082"/>
<path d="M22.5792 26.6624C22.4256 26.752 22.0032 27.0976 21.6448 27.456C20.9024 28.1856 20.7744 28.7232 21.2864 28.9152C21.44 28.9792 21.9136 29.312 22.3488 29.6576C22.784 29.9904 23.488 30.528 23.9232 30.848C24.704 31.3984 24.7296 31.424 24.6528 31.872C24.6144 32.1152 24.5376 32.5504 24.4992 32.832L24.4224 33.344L24.6784 33.088C24.832 32.9472 25.0368 32.6016 25.1392 32.32C25.2544 32 25.344 31.8848 25.3824 32C25.4208 32.1024 25.5488 32.4736 25.6768 32.8192L25.9072 33.4336L26.4704 33.3568L27.0336 33.28L28.2752 34.4192C29.4656 35.5072 29.9776 35.8912 30.1056 35.776C30.1312 35.7376 29.4656 34.9952 28.5952 34.112C27.7376 33.2416 26.9952 32.3712 26.9568 32.1792C26.8032 31.5904 27.8144 30.464 28.4928 30.464C28.8768 30.464 29.3632 31.0016 29.5552 31.616C29.7856 32.4096 29.888 34.2016 29.7088 34.5344C29.4912 34.944 29.76 34.88 30.0672 34.4448C30.2208 34.24 30.336 33.8816 30.336 33.6384C30.3488 33.408 30.4256 33.0752 30.528 32.896C30.7968 32.4352 30.7584 31.9616 30.464 31.7696C30.3232 31.68 30.208 31.5008 30.208 31.3472C30.208 30.9632 29.888 30.4128 29.44 30.0288C28.6336 29.3632 27.5968 29.632 26.3296 30.8352C25.9328 31.2064 25.8048 31.2704 25.6256 31.1552C25.4464 31.04 25.3952 30.7456 25.344 29.4656L25.28 27.9168L24.768 27.3792C23.9872 26.5728 23.1936 26.304 22.5792 26.6624ZM24.1152 27.5328C24.6144 27.968 24.8832 28.864 24.8064 29.8496L24.768 30.4L24.3712 29.8112C24.1536 29.4912 23.9104 29.0304 23.8336 28.7872C23.744 28.5568 23.488 28.1984 23.2704 28.0064C22.8608 27.6736 22.8608 27.6608 23.0912 27.4048C23.424 27.0464 23.5904 27.0592 24.1152 27.5328Z" fill="#722082"/>
<path d="M95.3602 26.8288C94.3746 27.5328 93.4914 28.6208 93.3506 29.3248C93.261 29.824 93.709 30.7072 94.2594 31.0784C94.7458 31.4112 95.6162 31.6032 95.6162 31.3728C95.6162 31.296 95.5394 31.232 95.437 31.232C95.1682 31.232 94.4898 30.6176 94.2594 30.1824C94.0034 29.696 94.093 29.3376 94.5794 28.864C95.0402 28.4416 95.7442 28.16 96.4226 28.16C96.845 28.16 96.9474 28.224 97.3442 28.7872C97.869 29.5168 98.0354 29.6064 98.5474 29.4272C99.021 29.2608 99.1234 28.9664 98.957 28.3136C98.7906 27.712 98.6242 27.5584 97.485 26.9568C96.461 26.4192 95.9874 26.3936 95.3602 26.8288Z" fill="#722082"/>
<path d="M100.275 30.4384C100.147 30.72 99.456 31.4624 98.7392 32.1024C97.3056 33.408 97.024 33.792 97.28 34.112C97.536 34.4192 97.8688 34.3424 98.5856 33.792C99.5072 33.1008 100.032 32.8576 100.826 32.7936C101.645 32.7296 102.093 32.832 102.195 33.1136C102.298 33.3568 101.44 34.2016 100.134 35.1744C98.9312 36.0576 99.0848 36.5056 100.288 35.648C101.12 35.0592 102.182 34.6368 102.579 34.7392C102.848 34.8032 103.424 35.5072 103.424 35.7504C103.424 35.8272 103.091 36.2368 101.658 37.9264C101.555 38.0416 101.491 38.1824 101.53 38.208C101.619 38.2976 102.336 37.6192 103.398 36.4544C104.115 35.6736 104.192 35.5328 104.192 35.0336C104.192 34.3296 103.898 34.048 103.104 33.9584C102.464 33.8816 102.413 33.8048 102.784 33.472C103.194 33.1008 103.066 32.64 102.426 32.2176C101.99 31.9232 101.901 31.7952 101.965 31.5904C102.067 31.2576 101.67 30.2336 101.376 30.08C100.877 29.8112 100.544 29.9264 100.275 30.4384Z" fill="#722082"/>
<path d="M15.8721 34.0352C15.6161 34.0992 15.5393 34.2144 15.5137 34.5856C15.4753 35.008 15.5137 35.0592 15.9745 35.2384C16.5121 35.456 16.7041 35.6352 17.0113 36.2496C17.1265 36.48 17.4721 36.8384 17.7921 37.0432C18.1121 37.2608 18.7009 37.7472 19.1105 38.1312C19.5201 38.528 19.9169 38.8736 19.9809 38.8864C20.0449 38.912 20.2753 39.296 20.4673 39.744C20.8513 40.5888 21.1585 40.8448 21.9777 41.0112C22.5025 41.1264 23.3473 41.9968 23.5265 42.6112C23.8337 43.5968 24.7553 44.0192 25.2417 43.3792C25.7025 42.7648 25.2545 41.8432 24.1281 41.152C23.1937 40.576 23.0657 40.3584 22.9761 39.1808C22.8865 37.9776 23.0529 37.2992 23.5521 36.9536C23.8337 36.7616 25.3313 36.7488 27.6481 36.928C29.4785 37.056 29.1841 36.8512 26.9441 36.4288C24.0001 35.8784 24.0769 35.9168 24.2945 35.136C24.5377 34.304 24.1665 34.2016 23.6545 34.944C23.4369 35.2512 23.1937 35.456 23.0401 35.456C22.8993 35.456 22.1953 35.264 21.4785 35.0208C19.5457 34.368 19.2513 34.304 17.9841 34.176C17.3569 34.0992 16.6913 34.0224 16.5121 33.9968C16.3329 33.9584 16.0513 33.984 15.8721 34.0352ZM20.2113 35.968C21.0561 36.2496 21.8753 36.48 22.0161 36.48C22.1569 36.48 22.3105 36.5696 22.3617 36.672C22.4513 36.9408 22.0289 37.4016 21.7729 37.312C21.6705 37.2736 21.6193 37.2736 21.6705 37.3248C21.7601 37.4272 20.7745 38.144 20.5441 38.144C20.2369 38.144 17.7921 35.904 17.7921 35.6224C17.7921 35.328 18.5985 35.4432 20.2113 35.968Z" fill="#722082"/>
<path d="M105.024 35.0592C104.986 35.1232 105.011 35.2128 105.088 35.264C105.152 35.3024 105.216 35.2512 105.216 35.1488C105.216 34.9184 105.139 34.88 105.024 35.0592Z" fill="#722082"/>
<path d="M54.2721 35.904C54.0417 36.1472 53.9649 36.3776 53.9521 36.8384V37.44L52.9665 37.4784C52.0961 37.504 51.9425 37.4784 51.7505 37.248C51.4561 36.9152 51.1873 36.928 50.4577 37.312C50.1249 37.4912 49.7921 37.632 49.7281 37.632C49.6513 37.632 49.3953 37.7728 49.1649 37.9392C48.9217 38.1184 48.5761 38.2976 48.3713 38.336C48.1793 38.3872 47.9745 38.528 47.9361 38.656C47.8977 38.7712 47.6929 38.912 47.5009 38.9504C47.1937 39.0144 47.0913 39.1424 46.9121 39.6416C46.7841 39.9744 46.5793 40.4992 46.4513 40.8064C45.9905 41.8944 45.9265 42.7136 46.2081 44.0192C46.4897 45.376 46.6561 45.632 47.8081 46.6432C48.2689 47.0528 48.7425 47.5648 48.8577 47.7952C49.1009 48.2816 49.2417 48.384 49.6897 48.384C49.9329 48.384 50.0865 48.4992 50.2913 48.832C50.4321 49.088 50.6241 49.3056 50.7137 49.3312C51.7377 49.6128 52.3905 49.8944 52.4929 50.0608C52.5569 50.1888 52.8385 50.3168 53.1329 50.368C53.4401 50.4192 53.7729 50.5856 53.9009 50.7392C54.0417 50.88 54.3105 51.2 54.5153 51.4176L54.8865 51.84L54.4897 52.0832C53.9137 52.4416 53.2481 53.1712 52.6081 54.144C51.5585 55.7184 50.9697 56.384 49.7537 57.3952C48.4737 58.4448 48.0769 58.9312 47.6929 59.8912C47.5649 60.2112 47.3089 60.6592 47.1041 60.8896C46.6689 61.3888 46.4897 62.1184 46.7329 62.4128C46.8609 62.5792 46.8609 62.6688 46.6817 62.9632C46.0289 64.064 45.3377 69.888 45.8625 69.888C45.9777 69.888 46.1185 69.8112 46.1697 69.7088C46.3105 69.4656 46.9761 69.12 47.3217 69.12C47.4753 69.12 47.9617 68.8512 48.4097 68.5056C49.5617 67.648 50.5985 67.136 51.8273 66.816C53.0561 66.5088 53.5553 66.2656 54.9121 65.3824C55.4369 65.0368 56.5505 64.4096 57.3697 64C58.2017 63.5776 59.0593 63.104 59.2641 62.9504C59.5713 62.72 59.9041 62.656 60.9025 62.5792C61.7345 62.528 62.4641 62.3872 63.1041 62.1568C64.0001 61.8496 64.2305 61.824 66.3041 61.8112C68.7233 61.8112 68.8129 61.6704 66.4961 61.5168C64.7681 61.4016 64.2561 61.2736 63.8721 60.864C63.5905 60.5696 63.5905 60.544 63.7953 60.2368C63.9105 60.0576 64.1281 59.84 64.2817 59.7632C65.3057 59.2128 67.8273 59.008 69.6321 59.3152C71.5009 59.648 72.2817 60.1216 72.0897 60.8256C72.0001 61.1712 71.0657 61.9392 70.3361 62.272C69.9265 62.4512 69.6321 62.6944 69.5297 62.8992C69.4145 63.168 69.2609 63.232 68.7361 63.3088C68.1089 63.3856 68.0449 63.4368 67.6225 64.0768C66.9825 65.0368 65.7537 65.856 64.5761 66.112C63.2961 66.3808 62.8481 66.3552 61.0305 65.8944L59.4049 65.4848L58.6625 66.1248C58.2529 66.4832 57.4081 67.1488 56.7681 67.6224C55.7057 68.3904 53.2481 70.8608 51.3281 73.0496C50.8417 73.6128 50.3681 73.9968 49.7409 74.3168C48.9473 74.7392 48.8193 74.7776 48.4481 74.6368C48.2305 74.56 48.0001 74.496 47.9489 74.496C47.5777 74.496 46.6433 78.592 46.7841 79.616C46.9889 81.024 47.6417 83.5456 47.9361 84.0448C48.4737 84.9664 50.0993 86.5792 50.9185 87.0144C51.6225 87.3856 51.7761 87.424 52.8897 87.424C53.5553 87.424 54.6689 87.5008 55.3729 87.6032C57.3953 87.8976 60.9281 88.1024 61.1329 87.9232C61.4017 87.7056 61.8113 87.9232 62.0801 88.4352C62.3617 89.0112 62.5409 89.1008 63.1297 89.0112C63.5521 88.9344 63.5649 88.9472 63.7825 89.6256C64.2945 91.2384 65.1009 92.2112 68.9537 95.8336C70.8609 97.6384 70.8737 97.664 70.9377 98.2912C70.9889 98.816 71.1425 99.1232 71.8977 100.186C72.3841 100.877 73.0625 101.837 73.3953 102.31C74.0609 103.258 75.7889 104.806 76.6209 105.229C77.3889 105.6 78.3233 105.677 78.8225 105.421C79.0529 105.306 79.2321 105.19 79.2321 105.165C79.2321 105.139 78.9761 105.178 78.6561 105.254C78.1441 105.37 78.0417 105.357 77.7857 105.139C77.6321 104.998 77.1713 104.678 76.7617 104.435C76.3393 104.192 75.7761 103.808 75.4945 103.565C75.0465 103.181 75.0081 103.104 75.1873 102.976C75.3665 102.835 75.3537 102.771 75.0593 102.323C74.8673 102.054 74.3041 101.325 73.7921 100.723C72.7425 99.4816 72.5761 99.2128 72.5761 98.7776C72.5761 98.3424 71.8081 97.408 69.4913 95.0272C66.8289 92.288 66.5985 91.8144 65.6001 86.9888L65.2929 85.4656L65.6001 84.928C65.9969 84.2624 65.9969 84.1216 65.6129 84.0192C65.4465 83.9808 65.1777 83.8016 65.0113 83.6352C64.8577 83.4688 64.6785 83.328 64.6273 83.328C64.5633 83.328 64.4865 83.6736 64.4353 84.1088C64.3457 84.9664 64.0897 85.312 63.4753 85.44C62.9505 85.5552 62.9121 85.7088 63.2833 86.272C63.6161 86.784 63.6929 87.04 63.5137 87.04C63.4625 87.04 63.0145 86.72 62.5409 86.3232C61.3121 85.312 60.9281 84.48 60.9281 82.8416C60.9281 81.6896 60.7617 81.28 60.5953 82.0096C60.1473 83.9936 59.9681 84.352 59.4561 84.352C59.2129 84.352 59.1361 84.2112 58.8929 83.392C58.6241 82.432 58.6241 82.432 58.8673 81.9456C59.0081 81.6768 59.3921 81.1392 59.7249 80.7552C60.7617 79.5776 60.7617 79.552 59.7761 80.256C58.1505 81.4208 56.8705 82.5344 56.7041 82.944C56.6145 83.1744 56.5633 83.6608 56.6017 84.16L56.6529 84.992H56.1281C55.5009 84.992 54.7201 84.6464 54.2465 84.16C53.9521 83.8656 53.8881 83.6992 53.8881 83.1488C53.8881 82.3168 54.2977 80.704 54.7073 79.8976C55.1297 79.0784 56.5633 77.7472 57.5233 77.2992C58.3297 76.928 59.1873 76.7616 61.5937 76.5568C62.7201 76.4544 63.3345 76.3136 64.9217 75.776C65.9969 75.4048 67.6353 74.752 68.5441 74.3296L70.2081 73.536H71.8977H73.5873L74.1761 74.112C75.5329 75.4304 76.0961 76.5312 76.2881 78.2208C76.3777 79.0272 76.5441 79.5264 77.1457 80.8192C78.0161 82.6752 78.0673 82.6624 78.1697 80.512C78.2081 79.7696 78.2977 79.0656 78.3617 78.9376C78.4513 78.7712 78.3745 78.4896 78.0929 77.888C77.8753 77.4272 77.6961 76.864 77.6961 76.6464C77.6961 76.416 77.8625 75.4176 78.0673 74.432C78.3873 72.896 78.4513 72.2816 78.5025 70.1568C78.5537 67.6736 78.5537 67.6736 78.8737 67.392L79.2065 67.1104L78.9505 66.7008C78.8097 66.4832 78.6433 66.3424 78.5793 66.3808C78.3361 66.5344 78.5153 65.9584 79.8209 62.5152C80.5633 60.5568 81.2289 58.7776 81.3057 58.5856C81.3953 58.3552 81.4081 57.8944 81.3441 57.3696C81.2929 56.896 81.2545 55.9488 81.2673 55.2704C81.3057 53.9264 81.2289 53.504 80.9729 53.504C80.7809 53.504 80.6401 52.9536 80.6401 52.224C80.6401 51.328 79.8593 51.1872 79.7697 52.0832C79.7441 52.3008 79.6929 52.48 79.6417 52.48C79.5137 52.48 78.7585 51.328 78.6689 50.9824C78.5153 50.496 78.2465 50.368 77.9393 50.6368C77.7217 50.8288 77.6833 50.9696 77.7473 51.3664C77.7985 51.648 77.9393 52.0704 78.0673 52.3264L78.3105 52.8L77.6449 53.0816C77.2865 53.2352 76.8001 53.3632 76.5697 53.376C76.1217 53.376 75.3281 53.6704 75.0081 53.9392C74.8801 54.0672 74.2785 54.1312 73.0241 54.1824C71.1425 54.2336 69.8497 54.528 69.2609 55.0144L68.9921 55.232L69.3121 55.9104C69.4785 56.2816 69.9009 56.8832 70.2465 57.2544C70.7969 57.8304 71.2961 58.5728 71.2961 58.816C71.2961 58.8544 71.1809 58.88 71.0529 58.88C70.8993 58.88 70.7841 58.752 70.7329 58.5344C70.6817 58.3552 70.2977 57.8816 69.8881 57.4976C69.1329 56.8064 68.4033 55.68 68.1089 54.7712C67.9681 54.336 67.9041 54.2976 67.3665 54.208C66.0865 54.016 65.8305 53.7344 66.3553 53.1072C66.5345 52.8896 66.7521 52.4672 66.8289 52.16C66.9313 51.7376 67.0593 51.5712 67.3281 51.456C67.7121 51.3024 68.0961 50.8288 68.0961 50.5344C68.0961 50.4448 68.0193 50.5088 67.9297 50.688C67.8401 50.8672 67.5841 51.0976 67.3537 51.2256C67.0465 51.3792 66.8289 51.648 66.5729 52.1856C66.3681 52.5952 66.0097 53.1328 65.7409 53.376C65.4849 53.6192 65.2801 53.9136 65.2801 54.0416C65.2801 54.4 64.8065 54.784 64.3841 54.784C64.0257 54.784 64.0001 54.8096 64.0769 55.1296C64.3073 56.1152 65.3185 57.2032 66.5857 57.856C67.0465 58.0992 67.4177 58.3424 67.3793 58.3808C67.3537 58.432 67.0209 58.5088 66.6497 58.56C64.8577 58.7904 63.6289 59.2896 63.2321 59.9424C62.8865 60.5056 62.9121 60.8256 63.3345 61.248L63.6801 61.6064L63.3601 61.504C62.7841 61.3376 61.9393 60.7872 61.8113 60.4928C61.6961 60.2368 60.4929 59.3536 59.8401 59.0336C59.4817 58.8672 57.0625 58.2784 56.0769 58.1248C55.5777 58.048 55.0145 57.8432 54.6689 57.6256L54.0801 57.2672L53.9777 56.128C53.8625 54.784 53.9649 53.5808 54.2081 53.1968C54.3105 53.056 54.6561 52.6976 54.9889 52.4288L55.5777 51.9296L55.5009 52.3136C55.4241 52.6464 55.4753 52.736 55.8593 53.0304C56.3457 53.4144 56.9601 53.4912 56.9601 53.184C56.9601 53.056 57.0881 52.992 57.3313 52.992C57.7025 52.992 58.0353 53.248 57.7793 53.3376C57.5873 53.4016 57.7281 54.144 57.9201 54.144C58.0097 54.144 58.1505 54.2208 58.2273 54.3232C58.3425 54.464 58.3041 54.5152 58.0353 54.5792C57.8049 54.6432 57.7281 54.7328 57.7793 54.8608C57.8177 54.976 57.8561 55.1168 57.8561 55.1936C57.8561 55.4368 59.3793 55.104 59.6225 54.8096C59.8529 54.5152 59.8145 53.9264 59.5329 53.6448C59.3793 53.4912 59.3153 53.2992 59.3537 53.0688C59.4177 52.736 59.0209 52.224 58.4321 51.8912C58.2017 51.7632 58.2145 51.7376 58.5345 51.264C59.0209 50.5344 58.9825 49.9968 58.4065 49.7792L58.0993 49.664L58.3553 49.2928C58.5089 49.0752 58.8673 48.832 59.1745 48.7296L59.7121 48.5376L59.2385 48.5248C58.7137 48.512 58.4705 48.2816 58.7905 48.1024C58.9569 48.0128 58.9953 47.8336 58.9441 47.2064C58.8801 46.4768 58.8929 46.4384 59.1489 46.5024C59.4689 46.592 59.5713 46.3616 59.4177 45.952C59.3281 45.7088 59.3537 45.5936 59.5457 45.44C59.6993 45.312 59.8145 45.0048 59.8657 44.5568C59.9681 43.6352 60.4417 43.0848 61.1073 43.0848C61.4017 43.0848 61.5681 43.0208 61.5681 42.9184C61.5681 42.7136 61.0561 42.7008 60.6209 42.9056C60.2113 43.0848 59.9681 43.4432 59.7761 44.1344C59.6993 44.4544 59.5585 44.672 59.4561 44.672C59.2257 44.672 59.2129 44.5184 59.4305 44.3008C59.5585 44.1728 59.5329 44.16 59.3537 44.2368C59.1489 44.3136 59.1361 44.2496 59.2129 43.3792C59.3409 41.8688 59.9681 40.7936 60.4801 41.216C60.6081 41.3184 60.6593 41.3184 60.6977 41.1904C60.7489 41.0624 60.8641 41.0624 61.2737 41.1904C61.8497 41.3568 62.5537 42.0608 62.9633 42.8544C63.3217 43.5456 63.5137 43.6736 64.0513 43.5712C64.4225 43.5072 64.5121 43.4304 64.5121 43.1872C64.5121 43.0336 64.6017 42.8416 64.7297 42.7776C64.8833 42.688 64.9217 42.5472 64.8577 42.1632C64.7297 41.4208 64.3969 41.0624 63.5393 40.768C63.1297 40.6272 62.5793 40.384 62.3361 40.2304C61.4529 39.6928 60.2113 39.168 59.8017 39.168C59.5713 39.168 59.2129 39.0784 59.0081 38.976C58.8033 38.8736 58.3681 38.7712 58.0225 38.7584C57.6897 38.7456 57.3313 38.6688 57.2417 38.5664C57.1521 38.4768 56.9345 38.4 56.7553 38.4C56.5889 38.4 56.4481 38.3232 56.4481 38.2336C56.4481 38.0032 55.9617 37.5808 55.4625 37.3888C55.0017 37.1968 54.9505 37.1072 54.8353 36.224C54.7841 35.8784 54.7073 35.584 54.6561 35.584C54.6177 35.584 54.4385 35.7248 54.2721 35.904ZM55.5265 37.888C55.7569 37.9776 55.9873 38.144 56.0513 38.2464C56.1153 38.3488 56.3585 38.5024 56.5889 38.5792C56.9089 38.6816 57.0625 38.8352 57.1521 39.1168C57.2289 39.3344 57.3441 39.488 57.4465 39.4624C57.7537 39.3472 57.6001 39.936 57.2801 40.0896C57.1009 40.1664 56.9601 40.3072 56.9601 40.4096C56.9601 40.4992 56.7937 40.6144 56.5889 40.6528C56.2177 40.7296 56.2049 40.7424 56.4225 41.0496C56.6145 41.3568 56.6145 41.3824 56.3329 41.6128C56.1665 41.7536 55.9233 41.856 55.7953 41.856C55.6033 41.856 55.5777 41.92 55.6289 42.2272C55.6929 42.5088 55.6417 42.6368 55.3601 42.8672C55.0145 43.1232 54.4129 43.2256 54.2209 43.0464C54.1825 42.9952 54.0545 42.944 53.9521 42.9312C53.8369 42.9184 53.5553 42.7392 53.3121 42.5344C52.9793 42.2656 52.8769 42.0864 52.9025 41.8432C52.9281 41.5872 52.8641 41.472 52.5825 41.3568C52.1601 41.1648 52.1217 40.896 52.4673 40.704C52.6081 40.64 52.7361 40.448 52.7617 40.2944C52.7873 40.0512 52.8897 39.9872 53.3505 39.9616C53.7729 39.9232 53.8881 39.872 53.8881 39.68C53.8881 39.552 53.7985 39.3856 53.6961 39.3216C53.4529 39.1936 53.5937 38.7328 54.0801 38.0928C54.2593 37.8624 54.4001 37.5424 54.4001 37.376V37.0688L54.7585 37.4016C54.9505 37.568 55.2961 37.7984 55.5265 37.888ZM77.8497 54.3616C77.9905 54.4896 78.0801 54.7456 78.0801 55.0272C78.0801 55.4112 78.0161 55.5392 77.7089 55.7184C77.2609 55.9872 76.7617 56 76.5569 55.7568C76.4673 55.6544 76.3649 55.36 76.3265 55.0912C76.2625 54.6944 76.2753 54.6304 76.4417 54.6944C76.5697 54.7328 76.7617 54.6432 76.9409 54.4512C77.2737 54.0928 77.5169 54.0672 77.8497 54.3616ZM75.8273 56.1408C75.9425 56.192 76.0321 56.3712 76.0321 56.576C76.0321 56.9728 76.1729 57.1136 76.7745 57.3184C77.0177 57.3952 77.4785 57.7024 77.8241 57.984C78.1569 58.2656 78.5025 58.496 78.5793 58.496C78.9249 58.496 78.6433 59.3536 77.6449 61.248C77.0305 62.4128 76.4801 63.3088 76.3649 63.3344C76.2625 63.36 76.0321 63.232 75.8785 63.0656C75.7121 62.8864 75.4689 62.7328 75.3281 62.7072C75.1745 62.6816 74.9569 62.4256 74.7905 62.0928C74.6241 61.7728 74.3681 61.376 74.1889 61.1968C74.0225 61.0176 73.8433 60.7232 73.7921 60.544C73.7409 60.3648 73.5617 59.9552 73.3953 59.6224C73.2289 59.2896 73.0881 58.9952 73.0881 58.9568C73.0881 58.9312 73.2545 58.8672 73.4465 58.816C73.7537 58.752 73.8305 58.6496 73.9969 58.0224C74.1377 57.4208 74.2273 57.28 74.4961 57.216C74.6753 57.1776 74.9697 56.9088 75.1745 56.6016C75.3793 56.3072 75.5585 56.064 75.5841 56.064C75.6097 56.064 75.7121 56.1024 75.8273 56.1408Z" fill="#722082"/>
<path d="M104.717 38.144C103.309 38.656 102.976 39.0784 102.976 40.32C102.976 41.0624 103.027 41.2416 103.36 41.728C103.565 42.0224 103.872 42.368 104.051 42.4704C104.461 42.7392 105.613 42.7264 106.048 42.4448C106.509 42.1504 106.88 41.3312 106.88 40.64C106.88 39.8592 106.624 39.936 106.419 40.7552C106.15 41.7792 105.536 42.24 104.755 41.984C104.051 41.7536 103.693 40.5888 104.141 39.9616C104.448 39.5136 105.011 39.296 105.971 39.2448C107.021 39.1808 107.136 39.1296 107.136 38.7072C107.136 38.3104 106.47 37.888 105.856 37.888C105.613 37.9008 105.101 38.0032 104.717 38.144Z" fill="#722082"/>
<path d="M67.712 44.3904C67.712 44.8256 67.2256 45.2864 66.5216 45.504C65.9072 45.7088 65.28 46.1824 65.28 46.4768C65.28 46.7456 65.6896 46.7456 65.9712 46.4768C66.1248 46.336 66.368 46.208 66.496 46.208C67.2384 46.208 68.3648 44.5568 67.84 44.224C67.776 44.1856 67.712 44.2496 67.712 44.3904Z" fill="#722082"/>
<path d="M61.184 44.672C60.9408 44.9152 60.8128 45.9264 61.0048 46.1184C61.0944 46.208 61.8496 45.8496 61.9648 45.6576C62.0672 45.504 61.952 45.056 61.824 45.056C61.76 45.056 61.568 45.248 61.3888 45.4656L61.056 45.888V45.4912C61.056 45.2736 61.1712 44.9408 61.3248 44.7488C61.632 44.352 61.5552 44.3008 61.184 44.672Z" fill="#722082"/>
<path d="M67.5456 47.4496C67.3536 47.8208 67.0848 48.1792 66.944 48.256C66.8032 48.3328 66.688 48.448 66.688 48.5248C66.688 48.7168 67.712 48.1152 67.8656 47.8336C67.9296 47.7056 67.968 47.424 67.9424 47.1936L67.904 46.784L67.5456 47.4496Z" fill="#722082"/>
<path d="M67.3537 49.0496C67.1745 49.2288 67.1489 49.664 67.3281 49.664C67.4561 49.664 67.6609 49.0496 67.5585 48.96C67.5329 48.9216 67.4305 48.9728 67.3537 49.0496Z" fill="#722082"/>
<path d="M64.1921 62.592C63.9873 62.7968 63.5393 63.0784 63.1937 63.2064C62.8609 63.3344 62.5665 63.4752 62.5537 63.5136C62.5153 63.6544 64.1281 64.768 64.3585 64.768C64.4865 64.768 64.9601 64.3968 65.4081 63.936C65.8945 63.4496 66.1505 63.104 66.0353 63.104C65.9201 63.104 65.6513 62.8992 65.4209 62.656C64.9217 62.1056 64.6657 62.0928 64.1921 62.592Z" fill="#722082"/>
<path d="M70.5666 81.8432L69.5042 82.0992V83.392C69.5042 84.7616 69.8114 86.2592 71.0402 90.688C71.6418 92.8896 72.8834 95.5136 73.6769 96.256L74.1505 96.704L73.8945 96.256C73.741 96.0128 73.4337 95.488 73.2162 95.104C72.3458 93.6192 71.7698 91.6992 70.8482 87.1424C70.669 86.2848 70.5282 85.504 70.5282 85.4016C70.5282 85.2992 70.989 85.952 71.565 86.8608C72.141 87.7696 73.0242 89.1264 73.549 89.8944C75.1873 92.2752 75.7761 93.76 75.7761 95.4752C75.7761 96.384 75.8273 96.5632 76.3393 97.6128C76.9153 98.7904 77.5041 100.48 77.6449 101.402C77.709 101.747 77.9777 102.259 78.4257 102.886C78.7969 103.411 79.2065 104.013 79.3345 104.218C79.4497 104.435 79.7697 104.717 80.0385 104.858C80.5249 105.101 80.5505 105.101 80.7937 104.87C80.9345 104.742 81.1393 104.474 81.2417 104.256L81.4465 103.872L80.9729 104.294C80.3201 104.858 80.2049 104.832 79.7697 104C79.6289 103.718 79.1553 103.13 78.7329 102.682C77.8881 101.824 77.6833 101.235 78.2465 101.338C78.5281 101.389 78.5281 101.389 78.5153 99.8784C78.5025 98.1376 78.3745 97.7152 76.8257 94.144C76.3265 93.0176 75.3154 90.368 74.5601 88.256C73.6002 85.5424 73.0626 84.2112 72.7298 83.7248C71.8594 82.4576 71.8082 82.368 71.8082 82.112C71.7954 81.6 71.6546 81.5744 70.5666 81.8432Z" fill="#722082"/>
<path d="M77.901 87.36C78.0162 90.624 78.1698 91.8272 78.6434 93.0432C78.8738 93.6448 79.1042 94.4768 79.1554 94.8992C79.2962 96.1024 79.4242 96.0896 79.3858 94.8736C79.3602 94.2592 79.2322 93.44 79.1042 93.056C78.9762 92.672 78.7714 91.456 78.6562 90.368C78.541 89.28 78.3106 87.744 78.1314 86.976L77.8242 85.568L77.901 87.36Z" fill="#722082"/>
<path d="M41.1521 97.9584C40.7297 98.1888 39.4625 98.9824 38.3361 99.7248C37.2097 100.467 35.4049 101.606 34.3297 102.259L32.3713 103.437L32.0385 103.168L31.6929 102.899L31.3089 103.296L30.9121 103.693L31.2321 103.936C31.4113 104.077 32.1409 104.602 32.8577 105.101C33.5745 105.6 34.4833 106.291 34.8801 106.637C35.2641 106.97 36.2369 107.584 37.0177 107.981C38.1313 108.557 38.6689 108.928 39.5009 109.722C40.0897 110.272 40.6017 110.72 40.6401 110.72C40.7425 110.72 41.2161 109.914 41.2161 109.722C41.2161 109.632 41.0753 109.491 40.8961 109.414C40.4865 109.235 40.4865 109.03 40.9473 107.238C41.1521 106.445 41.3569 105.331 41.4081 104.768C41.4721 104.102 41.6769 103.27 42.0097 102.349C42.8801 99.9168 43.1105 98.176 42.6497 97.7536C42.3169 97.4464 42.0225 97.4848 41.1521 97.9584ZM41.4593 99.9296C41.3697 101.005 39.5393 108.032 39.3473 108.032C39.1041 108.032 38.1697 107.392 37.2481 106.598C36.6465 106.086 35.6225 105.318 34.9697 104.896C34.3297 104.474 33.7921 104.09 33.7921 104.038C33.7921 103.846 34.8929 103.13 35.9297 102.643C36.5313 102.362 37.2865 101.875 37.6705 101.53C38.8353 100.467 41.0497 98.944 41.4081 98.944C41.4977 98.944 41.5105 99.2768 41.4593 99.9296Z" fill="#722082"/>
<path d="M93.504 100.147C93.1328 100.518 92.8 101.222 92.8 101.619C92.8 102.195 93.4016 102.118 94.208 101.44C94.7712 100.979 95.2704 100.864 95.7568 101.12C96.1408 101.338 96.0512 101.581 95.3088 102.387C94.5152 103.245 94.4 103.501 94.592 104.013C94.8224 104.614 95.104 104.832 95.6288 104.832C96.2176 104.832 96.896 104.294 97.2928 103.526C97.536 103.053 97.5744 103.027 97.7792 103.219C97.9072 103.334 98.0736 103.424 98.1504 103.424C98.4192 103.424 98.3168 103.053 97.8944 102.579C97.664 102.323 97.216 101.734 96.896 101.274C96.1024 100.122 95.7952 99.9168 94.72 99.8656C93.9136 99.8144 93.8112 99.84 93.504 100.147ZM96.704 102.4C96.8448 102.848 96.64 103.398 96.1664 103.808C95.9232 104.026 95.6544 104.179 95.5776 104.154C95.488 104.128 95.4112 103.872 95.3856 103.59C95.3472 103.13 95.4112 103.002 95.808 102.605C96.32 102.08 96.5888 102.029 96.704 102.4Z" fill="#722082"/>
<path d="M90.6881 102.63C90.2145 102.925 89.2161 104.384 89.2161 104.768C89.2161 105.254 89.9841 106.598 90.5217 107.072C91.0849 107.546 91.6865 107.725 92.2497 107.584C92.7105 107.469 93.5681 106.598 93.5681 106.24C93.5681 105.971 93.5297 105.984 93.0561 106.419C92.4673 106.957 92.0065 107.098 91.5713 106.893C91.1617 106.714 90.7521 105.818 90.7521 105.075C90.7521 104.448 90.9825 104.128 91.6993 103.795C92.2625 103.526 92.3905 103.232 92.1601 102.81C91.9041 102.374 91.2513 102.285 90.6881 102.63Z" fill="#722082"/>
<path d="M86.7456 105.216C86.336 105.536 85.376 106.97 85.376 107.251C85.376 107.622 85.9904 108.762 86.4768 109.312C87.3728 110.298 88.1408 110.438 89.0368 109.76C89.408 109.478 89.856 108.851 89.856 108.608C89.856 108.454 89.4976 108.557 89.4208 108.736C89.3184 109.03 88.5504 109.44 88.1152 109.44C87.4496 109.44 86.912 108.582 86.912 107.52C86.912 106.931 87.1168 106.662 87.8208 106.317C88.256 106.112 88.3968 105.971 88.4224 105.69C88.448 105.485 88.3968 105.242 88.3072 105.139C88.0768 104.87 87.1424 104.909 86.7456 105.216Z" fill="#722082"/>
<path d="M69.2994 105.971C68.7746 106.099 68.6082 106.214 68.6082 106.445C68.6082 106.547 68.493 106.842 68.3522 107.098C68.173 107.443 68.0962 107.827 68.0962 108.429C68.0962 109.568 67.789 111.142 67.4562 111.667C67.1618 112.154 67.1362 112.525 67.3538 113.574C67.5074 114.317 67.5074 114.342 67.0978 115.072C66.4962 116.173 66.5474 116.992 67.2258 116.992C68.0706 116.992 68.2754 116.621 68.4162 114.803L68.5058 113.69L69.4018 113.037C71.0146 111.872 71.565 112.141 72.8834 114.662C73.677 116.173 74.0994 116.736 73.933 116.032C73.8818 115.814 73.5618 115.046 73.2162 114.304C72.3458 112.435 72.333 112.371 72.909 112.064C73.4978 111.744 73.5362 111.565 73.0242 111.514C72.013 111.424 72.0642 111.488 71.4242 109.376C71.0018 107.994 70.029 105.856 69.8242 105.869C69.7602 105.882 69.517 105.92 69.2994 105.971ZM70.2722 109.53C70.9634 111.642 70.925 111.731 69.5682 111.181L68.8002 110.861L68.7618 110.195C68.7106 109.389 68.9538 107.789 69.1458 107.546C69.4018 107.238 69.709 107.776 70.2722 109.53Z" fill="#722082"/>
<path d="M62.0288 107.149C62.0032 107.251 61.9136 108.16 61.824 109.171C61.7472 110.182 61.5936 111.488 61.4912 112.051C61.3888 112.627 61.312 113.459 61.312 113.92C61.312 114.394 61.1968 115.149 61.0432 115.648C60.9024 116.147 60.7488 116.71 60.7104 116.928C60.6464 117.274 60.6592 117.299 60.8512 117.133C61.056 116.954 61.5424 115.482 61.8368 114.125L62.0032 113.37L62.5536 113.997C62.848 114.342 63.2704 114.957 63.488 115.354C63.9872 116.288 64.768 116.941 64.768 116.429C64.768 116.326 64.6272 116.083 64.4736 115.878C64.3072 115.686 63.8336 114.957 63.424 114.253L62.6688 112.986L63.04 112.691C63.3472 112.448 64.2944 112.038 65.1264 111.795C65.344 111.731 65.3184 111.398 65.0752 111.309C64.6144 111.13 64.1024 111.245 62.7968 111.808L62.2976 112.013L62.3872 111.168C62.4768 110.246 62.5664 109.965 63.2832 108.301C63.5392 107.699 63.7184 107.2 63.7056 107.174C63.68 107.149 63.3088 107.098 62.8736 107.059C62.2592 106.995 62.08 107.008 62.0288 107.149Z" fill="#722082"/>
<path d="M43.8273 107.379C42.9441 107.917 42.5729 108.762 42.6497 110.08C42.6881 110.733 42.7649 111.053 43.0081 111.411C43.3793 111.936 44.0193 112.294 44.5185 112.23C44.8641 112.179 44.8513 112.179 44.3649 111.936C44.0833 111.795 43.7505 111.526 43.6097 111.334C43.2897 110.899 43.1745 109.734 43.4177 109.402C43.5713 109.197 43.6609 109.222 44.8001 109.811C46.1569 110.515 46.9377 110.733 47.1169 110.451C47.2961 110.157 47.2449 109.338 47.0273 108.89C46.2593 107.366 44.9025 106.726 43.8273 107.379ZM45.1969 108.16C45.5297 108.16 46.0801 108.723 46.0801 109.056C46.0801 109.453 45.7473 109.363 45.1201 108.787C44.5441 108.25 44.3777 107.942 44.7489 108.083C44.8641 108.122 45.0561 108.16 45.1969 108.16Z" fill="#722082"/>
<path d="M82.4961 107.891C80.7297 108.352 80.1153 109.773 81.0625 111.181C82.0737 112.691 84.4161 113.011 85.1713 111.744C85.4785 111.206 85.4273 111.194 84.8385 111.616C84.2497 112.038 83.6993 112.102 83.0337 111.821C82.5857 111.642 82.1761 111.296 82.1761 111.104C82.1761 111.04 82.5473 110.733 82.9953 110.413C83.9169 109.747 84.9025 108.736 84.8385 108.518C84.6593 107.994 83.3921 107.648 82.4961 107.891ZM83.2385 108.762C83.3921 108.902 82.9313 109.312 82.3169 109.581C81.5617 109.914 81.4081 109.722 81.9585 109.133C82.3809 108.698 82.9953 108.506 83.2385 108.762Z" fill="#722082"/>
<path d="M50.0352 109.542C49.3696 110.221 48.512 111.155 48.1536 111.616C47.7824 112.077 47.2832 112.589 47.04 112.768C46.5152 113.152 46.4896 113.242 46.8992 113.421C47.3472 113.626 47.5904 113.446 48.9344 111.834C49.6 111.053 50.3168 110.234 50.5472 110.029L50.944 109.645L50.9568 110.733C50.9568 111.322 51.008 112.486 51.0592 113.318C51.1488 114.611 51.2 114.88 51.4304 115.11C51.584 115.251 51.7376 115.341 51.7888 115.302C51.8272 115.251 51.8528 113.728 51.8528 111.923C51.8272 108.685 51.776 108.275 51.4048 108.301C51.328 108.301 50.7136 108.864 50.0352 109.542Z" fill="#722082"/>
<path d="M75.9553 108.723C75.7249 108.89 75.7121 109.12 75.6481 111.808C75.5841 114.765 75.5713 114.803 75.0849 114.982C75.0209 115.008 75.0337 115.149 75.1233 115.302C75.2257 115.507 75.3921 115.584 75.6865 115.584C76.3393 115.584 80.5761 114.074 81.1009 113.638C81.3441 113.459 81.1521 113.024 80.8449 113.024C80.3841 113.024 80.0513 112.704 78.7329 110.938C77.5169 109.312 76.7617 108.544 76.3777 108.544C76.2881 108.544 76.0961 108.621 75.9553 108.723ZM77.4657 110.426C77.7217 110.694 78.1697 111.309 78.4641 111.808C78.7585 112.294 79.1169 112.832 79.2705 112.986C79.4113 113.152 79.5137 113.293 79.4753 113.318C79.4113 113.382 76.4289 114.432 76.3393 114.432C76.2369 114.432 76.5825 110.976 76.7617 110.234C76.8513 109.85 76.9281 109.875 77.4657 110.426Z" fill="#722082"/>
<path d="M54.464 109.453C54.336 109.85 53.888 111.731 53.7728 112.448C53.696 112.87 53.5424 113.536 53.44 113.92C53.3376 114.304 53.248 114.829 53.248 115.098C53.248 115.571 53.2608 115.584 53.7088 115.584C54.1056 115.584 54.2976 115.456 55.0912 114.714C55.5904 114.227 56.3456 113.587 56.768 113.28C57.1904 112.973 57.7792 112.461 58.0864 112.141C58.432 111.757 58.624 111.629 58.624 111.77C58.624 111.885 58.4192 112.832 58.176 113.882C57.92 114.918 57.6896 115.904 57.6512 116.058C57.6128 116.25 57.6768 116.39 57.8688 116.493C58.24 116.685 58.2912 116.582 58.688 114.88C58.8672 114.099 59.1872 112.934 59.4048 112.269C59.6096 111.603 59.776 110.886 59.7504 110.669C59.712 110.31 59.6736 110.272 59.2896 110.31C58.6112 110.362 58.2912 110.592 56.32 112.499C55.296 113.485 54.4512 114.304 54.4256 114.304C54.4 114.304 54.4256 114.112 54.464 113.882C54.5024 113.664 54.592 113.037 54.6432 112.512C54.6944 111.987 54.8736 111.104 55.04 110.566C55.2064 110.016 55.3216 109.555 55.2832 109.517C55.2576 109.491 55.0784 109.427 54.8864 109.376C54.6432 109.312 54.5152 109.338 54.464 109.453Z" fill="#722082"/>
</g>
<defs>
<clipPath id="clip0_15_40">
<rect width="128" height="128" fill="white"/>
</clipPath>
</defs>
</svg>
