<svg width="202" height="200" viewBox="0 0 202 200" fill="none" xmlns="http://www.w3.org/2000/svg">
<g clip-path="url(#clip0_26_550)">
<ellipse cx="100.781" cy="100" rx="100.781" ry="100" fill="white"/>
<path d="M86.9751 13.34C86.8541 13.44 86.5921 13.76 86.3905 14.08C86.068 14.58 86.0277 14.9 86.1486 16.26C86.2293 17.14 86.3502 17.96 86.4308 18.08C86.6727 18.46 87.2774 21.42 87.5797 23.8C87.741 25.06 88.0232 26.42 88.1844 26.8C88.648 27.92 88.9302 29.98 88.8496 31.8C88.8093 33.2 88.8496 33.5 89.0915 33.5C89.3535 33.5 89.3938 33 89.3535 30.04C89.3132 27.34 89.3535 26.62 89.5551 26.74C90.8047 27.5 92.0947 28.46 92.518 28.9C93.3243 29.8 94.5538 30.6 95.0779 30.6C95.743 30.6 95.5818 30.2 94.7352 29.7C94.3724 29.48 93.3243 28.62 92.4172 27.8C91.4901 26.98 90.6032 26.18 90.4218 26.04C89.8372 25.58 90.6032 24.58 92.6188 23.2C93.8282 22.36 93.9693 22.2 93.7072 21.86C93.2235 21.28 91.4497 22.1 89.7566 23.66C89.3938 24 89.0511 24.24 89.0108 24.18C88.8093 23.98 88.4666 20.06 88.6077 19.42C88.6883 19.02 88.7286 18.56 88.7085 18.4C88.6883 18.24 88.8093 17.34 88.9705 16.42C89.1519 15.42 89.1922 14.6 89.0915 14.42C88.6682 13.62 87.4386 13 86.9751 13.34Z" fill="#722082"/>
<path d="M132.306 19.88C130.674 21.06 127.267 24.72 126.582 25.98C126.441 26.24 125.977 26.8 125.534 27.22C124.607 28.1 124.546 28.84 125.373 29.42C126.642 30.32 127.691 29.94 127.932 28.52C128.174 27.06 132.326 20.98 132.871 21.32C133.133 21.48 133.052 23.58 132.73 24.9C132.246 26.88 132.407 28.6 133.072 28.6C133.193 28.6 134.141 27.7 135.209 26.58C136.277 25.48 137.406 24.44 137.749 24.26C138.293 23.98 138.373 23.98 138.575 24.28C138.877 24.68 138.555 26.04 137.95 26.9C137.466 27.6 137.265 28.04 137.063 29C136.962 29.38 136.761 30.08 136.579 30.54C136.418 31 136.176 31.98 136.055 32.74C135.934 33.48 135.652 34.86 135.431 35.8C135.209 36.74 134.886 38.04 134.725 38.72C133.979 41.84 134.725 40.92 135.955 37.2C137.104 33.7 137.325 33.1 137.607 32.78C138.031 32.26 139.643 28.9 139.784 28.22C139.865 27.86 140.329 26.64 140.832 25.52C142.022 22.92 142.102 22.28 141.397 21.44C140.51 20.4 139.381 20.66 137.628 22.36C136.962 23 136.66 23.44 136.66 23.8C136.66 24.18 136.237 24.74 135.088 25.86C134.221 26.72 133.455 27.34 133.375 27.28C133.153 27.04 133.213 25.94 133.516 24.88C133.939 23.44 134.483 19.82 134.342 19.38C134.141 18.78 133.576 18.92 132.306 19.88Z" fill="#722082"/>
<path d="M97.6372 22.18C96.8713 22.64 96.4278 23.66 96.2464 25.46C96.065 27.04 96.327 27.7 97.5163 28.7C98.1814 29.26 98.3427 29.3 99.7939 29.3C101.527 29.3 102.172 29 102.858 27.84C103.684 26.44 103.14 24.8 101.467 23.8C100.52 23.22 100.116 23.54 100.923 24.22C102.636 25.64 102.616 27.46 100.903 28.08C100.318 28.28 99.028 27.84 98.5845 27.26C97.8992 26.4 98.0202 25.46 99.1288 23.24C99.7335 22.08 98.8466 21.44 97.6372 22.18Z" fill="#722082"/>
<path d="M107.393 22.7C106.042 23.7 105.72 25.02 106.264 27.16C106.446 27.88 106.768 28.38 107.635 29.24C108.945 30.54 109.731 30.8 111.182 30.4C112.492 30.02 112.472 29.78 111.122 29.84C110.255 29.86 109.812 29.78 109.368 29.5C108.562 28.96 107.635 27.64 107.635 27V26.46L109.912 26.34C111.142 26.26 112.573 26.08 113.077 25.94C113.883 25.72 113.984 25.62 114.045 25.02C114.105 24.5 113.984 24.26 113.4 23.7C112.271 22.64 110.759 22 109.429 22C108.441 22 108.179 22.1 107.393 22.7ZM111.142 23.82C111.424 24.04 111.606 24.32 111.545 24.44C111.384 24.68 108.824 24.52 108.32 24.24C108.018 24.08 108.038 24 108.562 23.74C109.388 23.28 110.497 23.32 111.142 23.82Z" fill="#722082"/>
<path d="M80.182 24.72C78.126 25.9 78.0051 26.1 78.1865 28C78.3477 29.46 78.8718 30.9 79.6579 32.04C80.4037 33.12 82.5604 32.98 83.9713 31.76C84.7977 31.04 84.697 30.68 83.7899 31.2C82.8023 31.76 81.2704 31.82 80.7463 31.3C79.8796 30.44 80.0005 28.14 80.968 27C81.3913 26.48 81.613 26.4 82.4193 26.4C83.6085 26.4 84.0318 26.1 84.193 25.16C84.2938 24.44 84.2737 24.38 83.5884 24.1C82.4596 23.64 81.8549 23.74 80.182 24.72Z" fill="#722082"/>
<path d="M71.0719 27.1C70.1648 27.72 70.0036 27.72 69.5602 27.16C69.2377 26.78 69.0966 26.76 68.3105 26.92C67.0205 27.18 67.0003 27.82 68.2097 29.18C68.8547 29.9 69.1369 30.38 69.1369 30.78C69.1369 31.1 69.2578 31.4 69.3989 31.46C69.54 31.52 69.8423 32.08 70.0439 32.72C70.2656 33.38 70.5075 33.98 70.5881 34.08C70.6688 34.2 70.7494 34.48 70.7494 34.74C70.7494 35 71.0114 35.76 71.3541 36.46C71.7572 37.3 71.9991 38.24 72.12 39.34C72.3216 41 72.8456 42.42 73.3495 42.56C73.672 42.66 73.6116 42.24 73.0875 40.84C72.9061 40.36 72.6844 39.2 72.5836 38.24C72.4828 37.28 72.1402 35.46 71.858 34.2C71.5556 32.94 71.3138 31.72 71.3339 31.5C71.3541 31.28 71.3742 30.72 71.3541 30.24C71.3339 28.16 72.6844 27.52 74.055 28.92C74.8814 29.76 75.2845 30.8 75.083 31.56C74.7806 32.76 73.4503 33.46 72.9867 32.66C72.8859 32.46 72.7247 32.38 72.6441 32.46C72.4223 32.68 72.8255 33.28 73.2689 33.36C73.8736 33.48 75.1636 32.78 75.5869 32.1C76.373 30.84 76.0102 29.32 74.5388 27.6C73.6116 26.5 72.2611 26.3 71.0719 27.1Z" fill="#722082"/>
<path d="M125.272 31.4C125.211 31.5 125.251 31.6 125.352 31.6C125.473 31.6 125.574 31.5 125.574 31.4C125.574 31.28 125.534 31.2 125.493 31.2C125.433 31.2 125.332 31.28 125.272 31.4Z" fill="#722082"/>
<path d="M60.1666 33.1C59.1386 34.1 59.7433 37.32 61.1945 38.58C61.6783 39 62.1621 39.2 62.9481 39.3C64.218 39.46 65.0242 39.18 66.1731 38.18C66.8786 37.56 66.9592 37.38 67.06 36.26C67.2011 34.84 66.9189 34.24 65.8506 33.6C65.1049 33.14 62.9885 33.02 63.1295 33.44C63.19 33.58 63.5327 33.74 63.9156 33.82C65.3266 34.04 66.1127 34.82 66.1127 35.96C66.1127 37.24 64.5606 38.08 63.2303 37.52C62.283 37.14 61.8597 36.3 61.7388 34.52C61.5977 32.52 61.1341 32.12 60.1666 33.1Z" fill="#722082"/>
<path d="M142.828 34.8C140.913 35.16 139.482 37.94 140.087 40.14C140.47 41.5 141.014 42.54 141.578 42.9C141.84 43.08 142.546 43.26 143.13 43.32L144.219 43.42L143.11 42.86C141.82 42.2 141.356 41.52 141.195 40C141.094 39.18 141.135 38.8 141.377 38.5C141.659 38.12 141.699 38.12 142.243 38.44C143.553 39.24 146.516 40.4 147.242 40.4C147.766 40.4 148.149 39.9 148.149 39.2C148.149 38.96 147.806 38.12 147.403 37.36C146.839 36.28 146.436 35.82 145.65 35.28C144.622 34.6 144.239 34.52 142.828 34.8ZM144.904 36.48C145.589 36.84 146.214 37.72 146.053 38.12C145.952 38.38 145.851 38.36 145.287 38.08C144.521 37.68 143.11 36.58 143.11 36.34C143.11 36.1 144.319 36.18 144.904 36.48Z" fill="#722082"/>
<path d="M55.0273 35.8C55.0273 35.9 55.1281 36 55.2289 36C55.3498 36 55.4305 35.9 55.4305 35.8C55.4305 35.68 55.3498 35.6 55.2289 35.6C55.1281 35.6 55.0273 35.68 55.0273 35.8Z" fill="#722082"/>
<path d="M54.2611 37.4C53.7572 37.62 53.4146 38.34 53.4146 39.2C53.4146 39.94 53.1526 40.1 52.7091 39.6C52.0843 38.92 51.2982 39.08 50.6532 40.04C50.1493 40.78 49.988 40.9 49.4438 40.84C48.7182 40.76 47.2871 41.42 47.0855 41.9C46.8436 42.54 46.9847 42.8 47.8313 43.34C48.3151 43.66 49.5446 44.82 50.5726 45.94C51.6005 47.06 52.568 48.02 52.7293 48.08C53.9588 48.54 54.3216 47.72 53.4347 46.52C51.3788 43.76 50.7943 41.28 52.0641 40.52C52.3866 40.34 52.5882 40.46 53.4549 41.4C53.9991 42 54.8658 43.06 55.3899 43.74C56.2566 44.94 56.8411 45.32 56.8411 44.74C56.8411 44.58 56.4783 43.96 56.0147 43.34C55.1077 42.08 54.4224 40.3 54.6038 39.74C54.7449 39.34 55.793 38.6 56.2163 38.6C56.4985 38.6 57.3249 39.24 59.0583 40.76C59.5622 41.22 60.0057 41.48 60.046 41.38C60.1266 41.12 56.4985 37.64 55.8736 37.38C55.3093 37.16 54.8658 37.16 54.2611 37.4Z" fill="#722082"/>
<path d="M35.5563 41.66C35.3144 41.8 34.6493 42.34 34.0849 42.9C32.9159 44.04 32.7143 44.88 33.5205 45.18C33.7624 45.28 34.5082 45.8 35.1935 46.34C35.8788 46.86 36.9874 47.7 37.6727 48.2C38.9023 49.06 38.9426 49.1 38.8216 49.8C38.7612 50.18 38.6402 50.86 38.5798 51.3L38.4588 52.1L38.8619 51.7C39.1038 51.48 39.4263 50.94 39.5876 50.5C39.769 50 39.9101 49.82 39.9705 50C40.031 50.16 40.2326 50.74 40.4341 51.28L40.7969 52.24L41.6838 52.12L42.5707 52L44.5259 53.78C46.4004 55.48 47.2066 56.08 47.4082 55.9C47.4485 55.84 46.4004 54.68 45.0298 53.3C43.6793 51.94 42.5102 50.58 42.4498 50.28C42.2079 49.36 43.8002 47.6 44.8685 47.6C45.4732 47.6 46.2391 48.44 46.5415 49.4C46.9043 50.64 47.0655 53.44 46.7834 53.96C46.4407 54.6 46.864 54.5 47.3477 53.82C47.5896 53.5 47.771 52.94 47.771 52.56C47.7912 52.2 47.9121 51.68 48.0734 51.4C48.4966 50.68 48.4362 49.94 47.9726 49.64C47.7509 49.5 47.5694 49.22 47.5694 48.98C47.5694 48.38 47.0655 47.52 46.3601 46.92C45.0902 45.88 43.4576 46.3 41.4621 48.18C40.8373 48.76 40.6357 48.86 40.3535 48.68C40.0713 48.5 39.9907 48.04 39.9101 46.04L39.8093 43.62L39.003 42.78C37.7735 41.52 36.5238 41.1 35.5563 41.66ZM37.9751 43.02C38.7612 43.7 39.1844 45.1 39.0635 46.64L39.003 47.5L38.3782 46.58C38.0355 46.08 37.6526 45.36 37.5316 44.98C37.3905 44.62 36.9874 44.06 36.6448 43.76C35.9998 43.24 35.9998 43.22 36.3626 42.82C36.8866 42.26 37.1487 42.28 37.9751 43.02Z" fill="#722082"/>
<path d="M150.165 41.92C148.613 43.02 147.222 44.72 147 45.82C146.859 46.6 147.565 47.98 148.432 48.56C149.198 49.08 150.568 49.38 150.568 49.02C150.568 48.9 150.447 48.8 150.286 48.8C149.863 48.8 148.794 47.84 148.432 47.16C148.028 46.4 148.17 45.84 148.935 45.1C149.661 44.44 150.77 44 151.838 44C152.503 44 152.664 44.1 153.289 44.98C154.116 46.12 154.378 46.26 155.184 45.98C155.93 45.72 156.091 45.26 155.829 44.24C155.567 43.3 155.305 43.06 153.511 42.12C151.898 41.28 151.153 41.24 150.165 41.92Z" fill="#722082"/>
<path d="M157.904 47.56C157.703 48 156.614 49.16 155.486 50.16C153.228 52.2 152.785 52.8 153.188 53.3C153.591 53.78 154.115 53.66 155.244 52.8C156.695 51.72 157.521 51.34 158.771 51.24C160.061 51.14 160.766 51.3 160.928 51.74C161.089 52.12 159.738 53.44 157.683 54.96C155.788 56.34 156.03 57.04 157.924 55.7C159.235 54.78 160.908 54.12 161.532 54.28C161.956 54.38 162.863 55.48 162.863 55.86C162.863 55.98 162.339 56.62 160.081 59.26C159.92 59.44 159.819 59.66 159.88 59.7C160.021 59.84 161.149 58.78 162.822 56.96C163.951 55.74 164.072 55.52 164.072 54.74C164.072 53.64 163.608 53.2 162.359 53.06C161.351 52.94 161.27 52.82 161.855 52.3C162.5 51.72 162.298 51 161.291 50.34C160.605 49.88 160.464 49.68 160.565 49.36C160.726 48.84 160.101 47.24 159.638 47C158.852 46.58 158.328 46.76 157.904 47.56Z" fill="#722082"/>
<path d="M24.9942 53.18C24.5911 53.28 24.4701 53.46 24.4298 54.04C24.3694 54.7 24.4298 54.78 25.1555 55.06C26.002 55.4 26.3044 55.68 26.7881 56.64C26.9695 57 27.5137 57.56 28.0176 57.88C28.5216 58.22 29.4487 58.98 30.0937 59.58C30.7387 60.2 31.3636 60.74 31.4644 60.76C31.5651 60.8 31.928 61.4 32.2303 62.1C32.835 63.42 33.3187 63.82 34.6087 64.08C35.4351 64.26 36.7655 65.62 37.0476 66.58C37.5314 68.12 38.9826 68.78 39.7486 67.78C40.4742 66.82 39.7687 65.38 37.995 64.3C36.5236 63.4 36.322 63.06 36.1809 61.22C36.0398 59.34 36.3019 58.28 37.088 57.74C37.5314 57.44 39.8897 57.42 43.538 57.7C46.4203 57.9 45.9567 57.58 42.4294 56.92C37.7934 56.06 37.9144 56.12 38.257 54.9C38.64 53.6 38.0555 53.44 37.2492 54.6C36.9066 55.08 36.5236 55.4 36.2817 55.4C36.06 55.4 34.9514 55.1 33.8226 54.72C30.7791 53.7 30.3155 53.6 28.32 53.4C27.3323 53.28 26.2842 53.16 26.002 53.12C25.7198 53.06 25.2764 53.1 24.9942 53.18ZM31.8272 56.2C33.1575 56.64 34.4475 57 34.6692 57C34.8909 57 35.1328 57.14 35.2134 57.3C35.3545 57.72 34.6894 58.44 34.2862 58.3C34.125 58.24 34.0444 58.24 34.125 58.32C34.2661 58.48 32.7141 59.6 32.3512 59.6C31.8675 59.6 28.0176 56.1 28.0176 55.66C28.0176 55.2 29.2875 55.38 31.8272 56.2Z" fill="#722082"/>
<path d="M165.382 54.78C165.322 54.88 165.362 55.02 165.483 55.1C165.584 55.16 165.685 55.08 165.685 54.92C165.685 54.56 165.564 54.5 165.382 54.78Z" fill="#722082"/>
<path d="M85.463 56.1C85.1002 56.48 84.9793 56.84 84.9591 57.56V58.5L83.4071 58.56C82.0365 58.6 81.7946 58.56 81.4923 58.2C81.0287 57.68 80.6054 57.7 79.4565 58.3C78.9324 58.58 78.4083 58.8 78.3076 58.8C78.1866 58.8 77.7835 59.02 77.4207 59.28C77.0377 59.56 76.4935 59.84 76.171 59.9C75.8687 59.98 75.5462 60.2 75.4857 60.4C75.4252 60.58 75.1027 60.8 74.8004 60.86C74.3166 60.96 74.1554 61.16 73.8732 61.94C73.6716 62.46 73.3491 63.28 73.1476 63.76C72.4219 65.46 72.3212 66.74 72.7646 68.78C73.208 70.9 73.4701 71.3 75.2841 72.88C76.0098 73.52 76.7555 74.32 76.9369 74.68C77.3199 75.44 77.5416 75.6 78.2471 75.6C78.6301 75.6 78.8719 75.78 79.1944 76.3C79.4162 76.7 79.7185 77.04 79.8596 77.08C81.4721 77.52 82.5001 77.96 82.6613 78.22C82.7621 78.42 83.2055 78.62 83.6691 78.7C84.1529 78.78 84.6769 79.04 84.8785 79.28C85.1002 79.5 85.5235 80 85.846 80.34L86.4305 81L85.8057 81.38C84.8987 81.94 83.8505 83.08 82.8427 84.6C81.1899 87.06 80.2627 88.1 78.3479 89.68C76.3323 91.32 75.7074 92.08 75.1027 93.58C74.9012 94.08 74.498 94.78 74.1755 95.14C73.4902 95.92 73.208 97.06 73.591 97.52C73.7926 97.78 73.7926 97.92 73.5104 98.38C72.4824 100.1 71.394 109.2 72.2204 109.2C72.4018 109.2 72.6235 109.08 72.7041 108.92C72.9258 108.54 73.974 108 74.5182 108C74.7601 108 75.526 107.58 76.2315 107.04C78.0455 105.7 79.6782 104.9 81.6132 104.4C83.5482 103.92 84.3343 103.54 86.4708 102.16C87.2973 101.62 89.0508 100.64 90.3408 100C91.651 99.34 93.0015 98.6 93.324 98.36C93.8077 98 94.3318 97.9 95.904 97.78C97.2141 97.7 98.363 97.48 99.3709 97.12C100.782 96.64 101.145 96.6 104.41 96.58C108.219 96.58 108.361 96.36 104.712 96.12C101.991 95.94 101.185 95.74 100.58 95.1C100.137 94.64 100.137 94.6 100.459 94.12C100.641 93.84 100.983 93.5 101.225 93.38C102.838 92.52 106.809 92.2 109.651 92.68C112.593 93.2 113.823 93.94 113.521 95.04C113.379 95.58 111.908 96.78 110.759 97.3C110.114 97.58 109.651 97.96 109.489 98.28C109.308 98.7 109.066 98.8 108.24 98.92C107.252 99.04 107.151 99.12 106.486 100.12C105.478 101.62 103.543 102.9 101.689 103.3C99.6732 103.72 98.9677 103.68 96.1055 102.96L93.5457 102.32L92.3766 103.32C91.7316 103.88 90.4013 104.92 89.3935 105.66C87.7205 106.86 83.8505 110.72 80.8271 114.14C80.0612 115.02 79.3154 115.62 78.3277 116.12C77.078 116.78 76.8765 116.84 76.2919 116.62C75.9493 116.5 75.5865 116.4 75.5058 116.4C74.9213 116.4 73.4499 122.8 73.6716 124.4C73.9941 126.6 75.0221 130.54 75.4857 131.32C76.3323 132.76 78.8921 135.28 80.1821 135.96C81.2907 136.54 81.5326 136.6 83.2862 136.6C84.3343 136.6 86.0879 136.72 87.1965 136.88C90.3812 137.34 95.9443 137.66 96.2668 137.38C96.6901 137.04 97.3351 137.38 97.7584 138.18C98.2018 139.08 98.484 139.22 99.4112 139.08C100.076 138.96 100.096 138.98 100.439 140.04C101.245 142.56 102.515 144.08 108.582 149.74C111.586 152.56 111.606 152.6 111.706 153.58C111.787 154.4 112.029 154.88 113.218 156.54C113.984 157.62 115.052 159.12 115.576 159.86C116.625 161.34 119.346 163.76 120.656 164.42C121.865 165 123.337 165.12 124.123 164.72C124.486 164.54 124.768 164.36 124.768 164.32C124.768 164.28 124.365 164.34 123.861 164.46C123.054 164.64 122.893 164.62 122.49 164.28C122.248 164.06 121.523 163.56 120.878 163.18C120.212 162.8 119.326 162.2 118.882 161.82C118.177 161.22 118.116 161.1 118.398 160.9C118.681 160.68 118.66 160.58 118.197 159.88C117.894 159.46 117.008 158.32 116.201 157.38C114.549 155.44 114.286 155.02 114.286 154.34C114.286 153.66 113.077 152.2 109.429 148.48C105.236 144.2 104.874 143.46 103.301 135.92L102.818 133.54L103.301 132.7C103.926 131.66 103.926 131.44 103.321 131.28C103.059 131.22 102.636 130.94 102.374 130.68C102.132 130.42 101.85 130.2 101.769 130.2C101.669 130.2 101.548 130.74 101.467 131.42C101.326 132.76 100.923 133.3 99.9554 133.5C99.129 133.68 99.0685 133.92 99.653 134.8C100.177 135.6 100.298 136 100.016 136C99.9352 136 99.2298 135.5 98.484 134.88C96.549 133.3 95.9443 132 95.9443 129.44C95.9443 127.64 95.6823 127 95.4202 128.14C94.7148 131.24 94.4326 131.8 93.6263 131.8C93.2434 131.8 93.1224 131.58 92.7394 130.3C92.3162 128.8 92.3162 128.8 92.6991 128.04C92.9209 127.62 93.5255 126.78 94.0496 126.18C95.6823 124.34 95.6823 124.3 94.1302 125.4C91.5704 127.22 89.5548 128.96 89.2927 129.6C89.1516 129.96 89.071 130.72 89.1315 131.5L89.2121 132.8H88.3857C87.398 132.8 86.1685 132.26 85.4227 131.5C84.9591 131.04 84.8583 130.78 84.8583 129.92C84.8583 128.62 85.5033 126.1 86.1483 124.84C86.8135 123.56 89.071 121.48 90.5827 120.78C91.8526 120.2 93.203 119.94 96.9924 119.62C98.7662 119.46 99.7337 119.24 102.233 118.4C103.926 117.82 106.506 116.8 107.937 116.14L110.558 114.9H113.218H115.879L116.806 115.8C118.943 117.86 119.829 119.58 120.132 122.22C120.273 123.48 120.535 124.26 121.482 126.28C122.853 129.18 122.934 129.16 123.095 125.8C123.155 124.64 123.296 123.54 123.397 123.34C123.538 123.08 123.417 122.64 122.974 121.7C122.631 120.98 122.349 120.1 122.349 119.76C122.349 119.4 122.611 117.84 122.934 116.3C123.437 113.9 123.538 112.94 123.619 109.62C123.699 105.74 123.699 105.74 124.203 105.3L124.727 104.86L124.324 104.22C124.103 103.88 123.841 103.66 123.74 103.72C123.357 103.96 123.639 103.06 125.695 97.68C126.864 94.62 127.912 91.84 128.033 91.54C128.174 91.18 128.194 90.46 128.094 89.64C128.013 88.9 127.952 87.42 127.973 86.36C128.033 84.26 127.912 83.6 127.509 83.6C127.207 83.6 126.985 82.74 126.985 81.6C126.985 80.2 125.755 79.98 125.614 81.38C125.574 81.72 125.493 82 125.413 82C125.211 82 124.022 80.2 123.881 79.66C123.639 78.9 123.216 78.7 122.732 79.12C122.389 79.42 122.329 79.64 122.43 80.26C122.51 80.7 122.732 81.36 122.934 81.76L123.316 82.5L122.268 82.94C121.704 83.18 120.938 83.38 120.575 83.4C119.87 83.4 118.62 83.86 118.116 84.28C117.915 84.48 116.967 84.58 114.992 84.66C112.029 84.74 109.993 85.2 109.066 85.96L108.643 86.3L109.147 87.36C109.409 87.94 110.074 88.88 110.618 89.46C111.485 90.36 112.271 91.52 112.271 91.9C112.271 91.96 112.089 92 111.888 92C111.646 92 111.465 91.8 111.384 91.46C111.303 91.18 110.699 90.44 110.054 89.84C108.864 88.76 107.716 87 107.252 85.58C107.03 84.9 106.929 84.84 106.083 84.7C104.067 84.4 103.664 83.96 104.491 82.98C104.773 82.64 105.115 81.98 105.236 81.5C105.398 80.84 105.599 80.58 106.022 80.4C106.627 80.16 107.232 79.42 107.232 78.96C107.232 78.82 107.111 78.92 106.97 79.2C106.829 79.48 106.426 79.84 106.063 80.04C105.579 80.28 105.236 80.7 104.833 81.54C104.511 82.18 103.946 83.02 103.523 83.4C103.12 83.78 102.797 84.24 102.797 84.44C102.797 85 102.052 85.6 101.386 85.6C100.822 85.6 100.782 85.64 100.903 86.14C101.266 87.68 102.858 89.38 104.853 90.4C105.579 90.78 106.164 91.16 106.103 91.22C106.063 91.3 105.539 91.42 104.954 91.5C102.132 91.86 100.197 92.64 99.5724 93.66C99.0282 94.54 99.0685 95.04 99.7337 95.7L100.278 96.26L99.774 96.1C98.8669 95.84 97.5366 94.98 97.3351 94.52C97.1537 94.12 95.259 92.74 94.231 92.24C93.6666 91.98 89.8571 91.06 88.3051 90.82C87.519 90.7 86.6321 90.38 86.0879 90.04L85.1607 89.48L84.9994 87.7C84.818 85.6 84.9793 83.72 85.3623 83.12C85.5235 82.9 86.0677 82.34 86.5918 81.92L87.519 81.14L87.398 81.74C87.2771 82.26 87.3577 82.4 87.9624 82.86C88.7283 83.46 89.6958 83.58 89.6958 83.1C89.6958 82.9 89.8974 82.8 90.2804 82.8C90.8649 82.8 91.389 83.2 90.9858 83.34C90.6835 83.44 90.9052 84.6 91.2076 84.6C91.3487 84.6 91.5704 84.72 91.6913 84.88C91.8727 85.1 91.8123 85.18 91.389 85.28C91.0262 85.38 90.9052 85.52 90.9858 85.72C91.0463 85.9 91.1068 86.12 91.1068 86.24C91.1068 86.62 93.5054 86.1 93.8883 85.64C94.2512 85.18 94.1907 84.26 93.7473 83.82C93.5054 83.58 93.4046 83.28 93.4651 82.92C93.5659 82.4 92.941 81.6 92.0138 81.08C91.651 80.88 91.6712 80.84 92.1751 80.1C92.941 78.96 92.8805 78.12 91.9735 77.78L91.4898 77.6L91.8929 77.02C92.1348 76.68 92.6991 76.3 93.1829 76.14L94.0294 75.84L93.2837 75.82C92.4573 75.8 92.0743 75.44 92.5782 75.16C92.8402 75.02 92.9007 74.74 92.8201 73.76C92.7193 72.62 92.7394 72.56 93.1426 72.66C93.6465 72.8 93.8077 72.44 93.5659 71.8C93.4248 71.42 93.4651 71.24 93.7674 71C94.0093 70.8 94.1907 70.32 94.2713 69.62C94.4326 68.18 95.1784 67.32 96.2265 67.32C96.6901 67.32 96.9521 67.22 96.9521 67.06C96.9521 66.74 96.1459 66.72 95.4605 67.04C94.8155 67.32 94.4326 67.88 94.1302 68.96C94.0093 69.46 93.7876 69.8 93.6263 69.8C93.2635 69.8 93.2434 69.56 93.586 69.22C93.7876 69.02 93.7473 69 93.4651 69.12C93.1426 69.24 93.1224 69.14 93.2434 67.78C93.4449 65.42 94.4326 63.74 95.2388 64.4C95.4404 64.56 95.521 64.56 95.5815 64.36C95.6621 64.16 95.8435 64.16 96.4885 64.36C97.3955 64.62 98.5041 65.72 99.1491 66.96C99.7135 68.04 100.016 68.24 100.862 68.08C101.447 67.98 101.588 67.86 101.588 67.48C101.588 67.24 101.729 66.94 101.931 66.84C102.173 66.7 102.233 66.48 102.132 65.88C101.931 64.72 101.407 64.16 100.056 63.7C99.4112 63.48 98.5444 63.1 98.1615 62.86C96.7707 62.02 94.8155 61.2 94.1705 61.2C93.8077 61.2 93.2434 61.06 92.9209 60.9C92.5984 60.74 91.913 60.58 91.3688 60.56C90.8448 60.54 90.2804 60.42 90.1393 60.26C89.9982 60.12 89.6555 60 89.3734 60C89.1113 60 88.8896 59.88 88.8896 59.74C88.8896 59.38 88.1237 58.72 87.3376 58.42C86.6119 58.12 86.5313 57.98 86.3499 56.6C86.2693 56.06 86.1483 55.6 86.0677 55.6C86.0073 55.6 85.7251 55.82 85.463 56.1ZM87.4383 59.2C87.8012 59.34 88.164 59.6 88.2648 59.76C88.3655 59.92 88.7485 60.16 89.1113 60.28C89.6152 60.44 89.8571 60.68 89.9982 61.12C90.1191 61.46 90.3005 61.7 90.4618 61.66C90.9455 61.48 90.7037 62.4 90.1998 62.64C89.9176 62.76 89.6958 62.98 89.6958 63.14C89.6958 63.28 89.4338 63.46 89.1113 63.52C88.5268 63.64 88.5066 63.66 88.8493 64.14C89.1516 64.62 89.1516 64.66 88.7082 65.02C88.4462 65.24 88.0632 65.4 87.8616 65.4C87.5593 65.4 87.519 65.5 87.5996 65.98C87.7004 66.42 87.6198 66.62 87.1763 66.98C86.6321 67.38 85.6848 67.54 85.3824 67.26C85.3219 67.18 85.1204 67.1 84.9591 67.08C84.7777 67.06 84.3343 66.78 83.9513 66.46C83.4273 66.04 83.266 65.76 83.3063 65.38C83.3466 64.98 83.2458 64.8 82.8024 64.62C82.1373 64.32 82.0768 63.9 82.621 63.6C82.8427 63.5 83.0443 63.2 83.0846 62.96C83.1249 62.58 83.2862 62.48 84.0118 62.44C84.6769 62.38 84.8583 62.3 84.8583 62C84.8583 61.8 84.7173 61.54 84.556 61.44C84.173 61.24 84.3948 60.52 85.1607 59.52C85.4429 59.16 85.6646 58.66 85.6646 58.4V57.92L86.229 58.44C86.5313 58.7 87.0755 59.06 87.4383 59.2ZM122.591 84.94C122.813 85.14 122.954 85.54 122.954 85.98C122.954 86.58 122.853 86.78 122.369 87.06C121.664 87.48 120.878 87.5 120.555 87.12C120.414 86.96 120.253 86.5 120.192 86.08C120.091 85.46 120.112 85.36 120.374 85.46C120.575 85.52 120.878 85.38 121.16 85.08C121.684 84.52 122.067 84.48 122.591 84.94ZM119.406 87.72C119.588 87.8 119.729 88.08 119.729 88.4C119.729 89.02 119.95 89.24 120.898 89.56C121.281 89.68 122.006 90.16 122.551 90.6C123.075 91.04 123.619 91.4 123.74 91.4C124.284 91.4 123.841 92.74 122.268 95.7C121.301 97.52 120.434 98.92 120.253 98.96C120.091 99 119.729 98.8 119.487 98.54C119.225 98.26 118.842 98.02 118.62 97.98C118.378 97.94 118.036 97.54 117.774 97.02C117.511 96.52 117.108 95.9 116.826 95.62C116.564 95.34 116.282 94.88 116.201 94.6C116.121 94.32 115.839 93.68 115.576 93.16C115.314 92.64 115.093 92.18 115.093 92.12C115.093 92.08 115.355 91.98 115.657 91.9C116.141 91.8 116.262 91.64 116.524 90.66C116.746 89.72 116.887 89.5 117.31 89.4C117.592 89.34 118.056 88.92 118.378 88.44C118.701 87.98 118.983 87.6 119.023 87.6C119.064 87.6 119.225 87.66 119.406 87.72Z" fill="#722082"/>
<path d="M164.898 59.6C162.681 60.4 162.157 61.06 162.157 63C162.157 64.16 162.238 64.44 162.762 65.2C163.084 65.66 163.568 66.2 163.85 66.36C164.495 66.78 166.309 66.76 166.995 66.32C167.72 65.86 168.305 64.58 168.305 63.5C168.305 62.28 167.902 62.4 167.579 63.68C167.156 65.28 166.188 66 164.959 65.6C163.85 65.24 163.286 63.42 163.991 62.44C164.475 61.74 165.362 61.4 166.874 61.32C168.527 61.22 168.708 61.14 168.708 60.48C168.708 59.86 167.66 59.2 166.692 59.2C166.309 59.22 165.503 59.38 164.898 59.6Z" fill="#722082"/>
<path d="M106.627 69.36C106.627 70.04 105.861 70.76 104.752 71.1C103.785 71.42 102.797 72.16 102.797 72.62C102.797 73.04 103.442 73.04 103.885 72.62C104.127 72.4 104.51 72.2 104.712 72.2C105.881 72.2 107.655 69.62 106.828 69.1C106.727 69.04 106.627 69.14 106.627 69.36Z" fill="#722082"/>
<path d="M96.3475 69.8C95.9645 70.18 95.7629 71.76 96.0653 72.06C96.2064 72.2 97.3956 71.64 97.577 71.34C97.7382 71.1 97.5568 70.4 97.3553 70.4C97.2545 70.4 96.9521 70.7 96.67 71.04L96.1459 71.7V71.08C96.1459 70.74 96.3273 70.22 96.5692 69.92C97.0529 69.3 96.932 69.22 96.3475 69.8Z" fill="#722082"/>
<path d="M106.365 74.14C106.063 74.72 105.639 75.28 105.418 75.4C105.196 75.52 105.015 75.7 105.015 75.82C105.015 76.12 106.627 75.18 106.869 74.74C106.97 74.54 107.03 74.1 106.99 73.74L106.929 73.1L106.365 74.14Z" fill="#722082"/>
<path d="M106.063 76.64C105.781 76.92 105.74 77.6 106.023 77.6C106.224 77.6 106.547 76.64 106.385 76.5C106.345 76.44 106.184 76.52 106.063 76.64Z" fill="#722082"/>
<path d="M101.084 97.8C100.761 98.12 100.056 98.56 99.5118 98.76C98.9877 98.96 98.5241 99.18 98.504 99.24C98.4435 99.46 100.983 101.2 101.346 101.2C101.548 101.2 102.293 100.62 102.999 99.9C103.765 99.14 104.168 98.6 103.986 98.6C103.805 98.6 103.382 98.28 103.019 97.9C102.233 97.04 101.83 97.02 101.084 97.8Z" fill="#722082"/>
<path d="M111.122 127.88L109.449 128.28V130.3C109.449 132.44 109.933 134.78 111.868 141.7C112.815 145.14 114.77 149.24 116.02 150.4L116.766 151.1L116.363 150.4C116.121 150.02 115.637 149.2 115.295 148.6C113.924 146.28 113.017 143.28 111.566 136.16C111.283 134.82 111.062 133.6 111.062 133.44C111.062 133.28 111.787 134.3 112.694 135.72C113.601 137.14 114.992 139.26 115.819 140.46C118.399 144.18 119.326 146.5 119.326 149.18C119.326 150.6 119.406 150.88 120.213 152.52C121.12 154.36 122.047 157 122.269 158.44C122.369 158.98 122.793 159.78 123.498 160.76C124.083 161.58 124.728 162.52 124.929 162.84C125.111 163.18 125.615 163.62 126.038 163.84C126.804 164.22 126.844 164.22 127.227 163.86C127.449 163.66 127.771 163.24 127.932 162.9L128.255 162.3L127.509 162.96C126.481 163.84 126.3 163.8 125.615 162.5C125.393 162.06 124.647 161.14 123.982 160.44C122.652 159.1 122.329 158.18 123.216 158.34C123.659 158.42 123.659 158.42 123.639 156.06C123.619 153.34 123.417 152.68 120.979 147.1C120.193 145.34 118.6 141.2 117.411 137.9C115.899 133.66 115.053 131.58 114.529 130.82C113.158 128.84 113.077 128.7 113.077 128.3C113.057 127.5 112.835 127.46 111.122 127.88Z" fill="#722082"/>
<path d="M122.672 136.5C122.853 141.6 123.095 143.48 123.841 145.38C124.204 146.32 124.566 147.62 124.647 148.28C124.869 150.16 125.07 150.14 125.01 148.24C124.97 147.28 124.768 146 124.566 145.4C124.365 144.8 124.042 142.9 123.861 141.2C123.68 139.5 123.317 137.1 123.035 135.9L122.551 133.7L122.672 136.5Z" fill="#722082"/>
<path d="M64.8027 153.06C64.1376 153.42 62.1421 154.66 60.3684 155.82C58.5946 156.98 55.7526 158.76 54.0595 159.78L50.9755 161.62L50.4515 161.2L49.9073 160.78L49.3026 161.4L48.6777 162.02L49.1816 162.4C49.4638 162.62 50.6127 163.44 51.7415 164.22C52.8702 165 54.3013 166.08 54.9262 166.62C55.5309 167.14 57.0627 168.1 58.2923 168.72C60.0459 169.62 60.8924 170.2 62.2026 171.44C63.1298 172.3 63.936 173 63.9965 173C64.1577 173 64.9035 171.74 64.9035 171.44C64.9035 171.3 64.6818 171.08 64.3996 170.96C63.7546 170.68 63.7546 170.36 64.4802 167.56C64.8027 166.32 65.1252 164.58 65.2059 163.7C65.3066 162.66 65.6291 161.36 66.1532 159.92C67.5238 156.12 67.8866 153.4 67.161 152.74C66.637 152.26 66.1734 152.32 64.8027 153.06ZM65.2865 156.14C65.1454 157.82 62.263 168.8 61.9607 168.8C61.5777 168.8 60.1063 167.8 58.6551 166.56C57.7077 165.76 56.0952 164.56 55.0673 163.9C54.0595 163.24 53.2129 162.64 53.2129 162.56C53.2129 162.26 54.9463 161.14 56.579 160.38C57.5263 159.94 58.7155 159.18 59.3202 158.64C61.1545 156.98 64.6415 154.6 65.2059 154.6C65.347 154.6 65.3671 155.12 65.2865 156.14Z" fill="#722082"/>
<path d="M147.241 156.48C146.657 157.06 146.133 158.16 146.133 158.78C146.133 159.68 147.08 159.56 148.35 158.5C149.237 157.78 150.023 157.6 150.789 158C151.394 158.34 151.253 158.72 150.083 159.98C148.834 161.32 148.652 161.72 148.955 162.52C149.317 163.46 149.761 163.8 150.587 163.8C151.515 163.8 152.583 162.96 153.208 161.76C153.591 161.02 153.651 160.98 153.974 161.28C154.175 161.46 154.437 161.6 154.558 161.6C154.981 161.6 154.82 161.02 154.155 160.28C153.792 159.88 153.087 158.96 152.583 158.24C151.333 156.44 150.849 156.12 149.156 156.04C147.886 155.96 147.725 156 147.241 156.48ZM152.28 160C152.502 160.7 152.18 161.56 151.434 162.2C151.051 162.54 150.628 162.78 150.507 162.74C150.366 162.7 150.245 162.3 150.204 161.86C150.144 161.14 150.245 160.94 150.87 160.32C151.676 159.5 152.099 159.42 152.28 160Z" fill="#722082"/>
<path d="M142.807 160.36C142.061 160.82 140.489 163.1 140.489 163.7C140.489 164.46 141.699 166.56 142.545 167.3C143.432 168.04 144.379 168.32 145.266 168.1C145.992 167.92 147.342 166.56 147.342 166C147.342 165.58 147.282 165.6 146.536 166.28C145.609 167.12 144.883 167.34 144.198 167.02C143.553 166.74 142.908 165.34 142.908 164.18C142.908 163.2 143.271 162.7 144.4 162.18C145.286 161.76 145.488 161.3 145.125 160.64C144.722 159.96 143.694 159.82 142.807 160.36Z" fill="#722082"/>
<path d="M136.599 164.4C135.954 164.9 134.442 167.14 134.442 167.58C134.442 168.16 135.41 169.94 136.176 170.8C137.587 172.34 138.796 172.56 140.207 171.5C140.792 171.06 141.497 170.08 141.497 169.7C141.497 169.46 140.933 169.62 140.812 169.9C140.651 170.36 139.441 171 138.756 171C137.708 171 136.861 169.66 136.861 168C136.861 167.08 137.184 166.66 138.292 166.12C138.978 165.8 139.199 165.58 139.24 165.14C139.28 164.82 139.199 164.44 139.058 164.28C138.695 163.86 137.224 163.92 136.599 164.4Z" fill="#722082"/>
<path d="M109.127 165.58C108.3 165.78 108.038 165.96 108.038 166.32C108.038 166.48 107.857 166.94 107.635 167.34C107.353 167.88 107.232 168.48 107.232 169.42C107.232 171.2 106.748 173.66 106.224 174.48C105.761 175.24 105.72 175.82 106.063 177.46C106.305 178.62 106.305 178.66 105.66 179.8C104.712 181.52 104.793 182.8 105.861 182.8C107.192 182.8 107.514 182.22 107.736 179.38L107.877 177.64L109.288 176.62C111.828 174.8 112.694 175.22 114.77 179.16C116.02 181.52 116.685 182.4 116.423 181.3C116.343 180.96 115.839 179.76 115.294 178.6C113.924 175.68 113.904 175.58 114.811 175.1C115.738 174.6 115.798 174.32 114.992 174.24C113.4 174.1 113.48 174.2 112.473 170.9C111.807 168.74 110.276 165.4 109.953 165.42C109.852 165.44 109.469 165.5 109.127 165.58ZM110.659 171.14C111.747 174.44 111.686 174.58 109.55 173.72L108.341 173.22L108.28 172.18C108.199 170.92 108.582 168.42 108.885 168.04C109.288 167.56 109.772 168.4 110.659 171.14Z" fill="#722082"/>
<path d="M97.6775 167.42C97.6372 167.58 97.4961 169 97.355 170.58C97.234 172.16 96.9922 174.2 96.8309 175.08C96.6697 175.98 96.5487 177.28 96.5487 178C96.5487 178.74 96.3673 179.92 96.1255 180.7C95.9037 181.48 95.6619 182.36 95.6014 182.7C95.5006 183.24 95.5208 183.28 95.8231 183.02C96.1456 182.74 96.9115 180.44 97.3751 178.32L97.6372 177.14L98.5039 178.12C98.9675 178.66 99.6326 179.62 99.9753 180.24C100.761 181.7 101.991 182.72 101.991 181.92C101.991 181.76 101.769 181.38 101.527 181.06C101.265 180.76 100.52 179.62 99.8745 178.52L98.6853 176.54L99.2698 176.08C99.7536 175.7 101.245 175.06 102.555 174.68C102.898 174.58 102.858 174.06 102.475 173.92C101.749 173.64 100.943 173.82 98.8869 174.7L98.1008 175.02L98.2419 173.7C98.383 172.26 98.524 171.82 99.6528 169.22C100.056 168.28 100.338 167.5 100.318 167.46C100.278 167.42 99.6931 167.34 99.0078 167.28C98.0403 167.18 97.7581 167.2 97.6775 167.42Z" fill="#722082"/>
<path d="M69.0154 167.78C67.6246 168.62 67.0401 169.94 67.161 172C67.2215 173.02 67.3424 173.52 67.7254 174.08C68.3099 174.9 69.3177 175.46 70.1038 175.36C70.648 175.28 70.6279 175.28 69.8619 174.9C69.4185 174.68 68.8944 174.26 68.6727 173.96C68.1688 173.28 67.9874 171.46 68.3704 170.94C68.6122 170.62 68.7533 170.66 70.5472 171.58C72.6838 172.68 73.9133 173.02 74.1955 172.58C74.4777 172.12 74.3971 170.84 74.0544 170.14C72.8451 167.76 70.7085 166.76 69.0154 167.78ZM71.1721 169C71.6962 169 72.5629 169.88 72.5629 170.4C72.5629 171.02 72.0388 170.88 71.0512 169.98C70.1441 169.14 69.8821 168.66 70.4666 168.88C70.648 168.94 70.9504 169 71.1721 169Z" fill="#722082"/>
<path d="M129.907 168.58C127.126 169.3 126.158 171.52 127.65 173.72C129.242 176.08 132.931 176.58 134.12 174.6C134.604 173.76 134.523 173.74 133.596 174.4C132.669 175.06 131.802 175.16 130.754 174.72C130.048 174.44 129.403 173.9 129.403 173.6C129.403 173.5 129.988 173.02 130.693 172.52C132.145 171.48 133.697 169.9 133.596 169.56C133.314 168.74 131.318 168.2 129.907 168.58ZM131.076 169.94C131.318 170.16 130.593 170.8 129.625 171.22C128.436 171.74 128.194 171.44 129.061 170.52C129.726 169.84 130.693 169.54 131.076 169.94Z" fill="#722082"/>
<path d="M78.7908 171.16C77.7427 172.22 76.3922 173.68 75.8278 174.4C75.2433 175.12 74.4572 175.92 74.0742 176.2C73.2478 176.8 73.2075 176.94 73.8525 177.22C74.558 177.54 74.941 177.26 77.0574 174.74C78.1055 173.52 79.2342 172.24 79.5971 171.92L80.2219 171.32L80.2421 173.02C80.2421 173.94 80.3227 175.76 80.4033 177.06C80.5444 179.08 80.625 179.5 80.9878 179.86C81.2297 180.08 81.4716 180.22 81.5522 180.16C81.6127 180.08 81.653 177.7 81.653 174.88C81.6127 169.82 81.5321 169.18 80.9475 169.22C80.8266 169.22 79.8591 170.1 78.7908 171.16Z" fill="#722082"/>
<path d="M119.607 169.88C119.245 170.14 119.224 170.5 119.124 174.7C119.023 179.32 119.003 179.38 118.237 179.66C118.136 179.7 118.156 179.92 118.297 180.16C118.459 180.48 118.721 180.6 119.184 180.6C120.212 180.6 126.884 178.24 127.71 177.56C128.093 177.28 127.791 176.6 127.307 176.6C126.582 176.6 126.057 176.1 123.981 173.34C122.067 170.8 120.877 169.6 120.273 169.6C120.132 169.6 119.829 169.72 119.607 169.88ZM121.986 172.54C122.389 172.96 123.094 173.92 123.558 174.7C124.022 175.46 124.586 176.3 124.828 176.54C125.05 176.8 125.211 177.02 125.15 177.06C125.05 177.16 120.353 178.8 120.212 178.8C120.051 178.8 120.595 173.4 120.877 172.24C121.018 171.64 121.139 171.68 121.986 172.54Z" fill="#722082"/>
<path d="M85.7654 171.02C85.5639 171.64 84.8584 174.58 84.677 175.7C84.5561 176.36 84.3142 177.4 84.1529 178C83.9917 178.6 83.8506 179.42 83.8506 179.84C83.8506 180.58 83.8707 180.6 84.5762 180.6C85.2011 180.6 85.5034 180.4 86.7531 179.24C87.5392 178.48 88.7284 177.48 89.3936 177C90.0587 176.52 90.9859 175.72 91.4696 175.22C92.0139 174.62 92.3162 174.42 92.3162 174.64C92.3162 174.82 91.9937 176.3 91.6107 177.94C91.2076 179.56 90.8448 181.1 90.7843 181.34C90.7239 181.64 90.8246 181.86 91.127 182.02C91.7115 182.32 91.7921 182.16 92.417 179.5C92.6992 178.28 93.2031 176.46 93.5457 175.42C93.8682 174.38 94.1303 173.26 94.09 172.92C94.0295 172.36 93.969 172.3 93.3643 172.36C92.2961 172.44 91.7921 172.8 88.6881 175.78C87.0756 177.32 85.7453 178.6 85.705 178.6C85.6646 178.6 85.705 178.3 85.7654 177.94C85.8259 177.6 85.967 176.62 86.0476 175.8C86.1282 174.98 86.4104 173.6 86.6725 172.76C86.9345 171.9 87.1159 171.18 87.0554 171.12C87.0151 171.08 86.7329 170.98 86.4306 170.9C86.0476 170.8 85.8461 170.84 85.7654 171.02Z" fill="#722082"/>
</g>
<defs>
<clipPath id="clip0_26_550">
<rect width="201.562" height="200" fill="white"/>
</clipPath>
</defs>
</svg>
