<svg width="11" height="13" viewBox="0 0 11 13" fill="none" xmlns="http://www.w3.org/2000/svg">
<path d="M5.13756 12.6337C5.24341 12.7091 5.37011 12.7496 5.50005 12.7496C5.62999 12.7496 5.7567 12.7091 5.86255 12.6337C6.05255 12.4994 10.5182 9.275 10.5001 5.25C10.5001 2.49313 8.25693 0.25 5.50005 0.25C2.74318 0.25 0.500055 2.49312 0.500055 5.24687C0.48193 9.275 4.94756 12.4994 5.13756 12.6337ZM5.50005 1.5C7.56818 1.5 9.25006 3.18188 9.25006 5.25313C9.26318 8.02688 6.50756 10.5175 5.50005 11.3344C4.49318 10.5169 1.73693 8.02563 1.75005 5.25C1.75005 3.18187 3.43193 1.5 5.50005 1.5Z" fill="#7E6783"/>
</svg>
